<svg width="32" height="16" viewBox="0 0 32 16" fill="none" xmlns="http://www.w3.org/2000/svg">
<path id="Arrow 28" d="M31 7C31.5523 7 32 7.44772 32 8C32 8.55228 31.5523 9 31 9L31 7ZM0.29289 8.7071C-0.0976334 8.31658 -0.0976333 7.68341 0.292891 7.29289L6.65685 0.92893C7.04738 0.538406 7.68054 0.538406 8.07107 0.92893C8.46159 1.31945 8.46159 1.95262 8.07107 2.34314L2.41421 8L8.07107 13.6569C8.46159 14.0474 8.46159 14.6805 8.07107 15.0711C7.68054 15.4616 7.04738 15.4616 6.65685 15.0711L0.29289 8.7071ZM31 9L0.999998 9L0.999998 7L31 7L31 9Z" fill="#005D4B"/>
</svg>
