<svg width="9" height="16" viewBox="0 0 9 16" fill="none" xmlns="http://www.w3.org/2000/svg">
<path id="Arrow 8" d="M5.12708 1C5.12708 0.723858 4.90322 0.5 4.62708 0.5C4.35093 0.5 4.12708 0.723858 4.12708 1L5.12708 1ZM4.27352 15.798C4.46878 15.9933 4.78537 15.9933 4.98063 15.798L8.16261 12.616C8.35787 12.4208 8.35787 12.1042 8.16261 11.9089C7.96735 11.7136 7.65076 11.7136 7.4555 11.9089L4.62707 14.7373L1.79865 11.9089C1.60339 11.7136 1.2868 11.7136 1.09154 11.9089C0.896279 12.1042 0.896279 12.4208 1.09154 12.616L4.27352 15.798ZM4.12708 1L4.12707 15.4444L5.12707 15.4444L5.12708 1L4.12708 1Z" fill="#FCF2EA"/>
</svg>
