<svg width="71" height="77" viewBox="0 0 71 77" fill="none" xmlns="http://www.w3.org/2000/svg">
<path d="M70 8.51861V68.6674C70 72.82 66.5676 76.1861 62.3333 76.1861H8.66667C4.43248 76.1861 1 72.82 1 68.6674V8.51861C1 4.36619 4.43248 1 8.66667 1H62.3333C66.5676 1 70 4.36619 70 8.51861Z" stroke="#003731" stroke-linecap="round" stroke-linejoin="round"/>
<path d="M1 24C1 24 20.3833 24 24.1757 22.8751C27.9681 21.7502 26.8444 16 26.8444 16" stroke="#003731" stroke-linecap="round" stroke-linejoin="round"/>
<path d="M70 24C70 24 50.6167 24 46.8243 22.8751C43.0319 21.7502 44.1556 16 44.1556 16" stroke="#003731" stroke-linecap="round" stroke-linejoin="round"/>
</svg>
