<svg width="23" height="23" viewBox="0 0 23 23" fill="none" xmlns="http://www.w3.org/2000/svg">
<g clip-path="url(#clip0_720_1320)">
<path d="M3.61835 3.32221C3.61835 2.89649 3.61835 2.48932 3.61835 2.08215C3.61932 1.02388 4.39706 0.158532 5.49522 0.0416678C6.01178 -0.0130544 6.53804 -0.0251118 7.05459 0.0750576C7.89933 0.237369 8.61008 0.981219 8.67902 1.80205C8.71592 2.24168 8.70135 2.68503 8.70912 3.12744C8.71009 3.18773 8.70912 3.24802 8.70912 3.31665H13.795C13.795 3.27213 13.795 3.22297 13.795 3.17382C13.8038 2.71749 13.7892 2.26023 13.8251 1.80669C13.8912 0.959887 14.7136 0.07784 15.7515 0.0351753C16.2856 0.0129155 16.8225 -0.0278943 17.3527 0.101955C18.1731 0.304149 18.8644 1.11663 18.88 1.92355C18.8887 2.38452 18.8819 2.84548 18.8819 3.325C18.9547 3.325 19.0062 3.325 19.0586 3.325C19.5616 3.325 20.0636 3.32314 20.5666 3.32407C21.5142 3.32407 22.2774 4.0336 22.2832 4.94162C22.292 6.1789 22.2852 7.4171 22.2852 8.65531C22.2852 10.2079 22.2852 11.7615 22.2852 13.3141C22.2852 14.8667 22.2852 16.4203 22.2861 17.9729C22.2861 19.0785 22.2813 20.185 22.289 21.2906C22.2929 21.874 22.0512 22.3358 21.5793 22.6939C21.2822 22.9192 20.9307 22.9999 20.5588 22.9999C17.775 23.0009 14.9903 22.9999 12.2065 22.9999C8.80136 22.9999 5.39716 22.9999 1.99198 22.9999C1.1016 22.9999 0.419015 22.4722 0.242299 21.6374C0.214141 21.5057 0.219967 21.3657 0.219967 21.2303C0.219967 18.5433 0.220938 15.8554 0.220938 13.1685C0.220938 10.4482 0.218025 7.72781 0.219967 5.00747C0.219967 4.29701 0.562718 3.77483 1.22686 3.4669C1.42688 3.37415 1.66865 3.33705 1.89391 3.32871C2.45901 3.31016 3.02509 3.32221 3.61932 3.32221H3.61835ZM20.5831 8.25277H1.92013V21.3638H20.5821V8.25277H20.5831ZM7.0041 3.9594C7.0041 3.35189 7.00605 2.74531 7.0041 2.1378C7.00313 1.84286 6.85943 1.70837 6.5526 1.70466C6.27685 1.70188 6.0011 1.70003 5.72534 1.70466C5.46998 1.71023 5.31171 1.86327 5.31074 2.1072C5.3088 3.3352 5.30977 4.56413 5.31268 5.79213C5.31268 6.04256 5.47677 6.19559 5.73796 6.1993C5.99915 6.20301 6.26034 6.20394 6.52153 6.20023C6.87399 6.19559 7.00605 6.06389 7.00605 5.7235C7.00605 5.13547 7.00605 4.54651 7.00605 3.95848L7.0041 3.9594ZM17.1944 3.9594C17.1944 3.9594 17.1944 3.9594 17.1934 3.9594C17.1934 3.92138 17.1934 3.88428 17.1934 3.84625C17.1934 3.28141 17.1944 2.71656 17.1934 2.15172C17.1934 1.84935 17.0517 1.71023 16.7361 1.70466C16.4798 1.70003 16.2234 1.70188 15.9671 1.70466C15.6418 1.70745 15.5001 1.84193 15.4991 2.15357C15.4981 3.35839 15.4981 4.5632 15.4991 5.76802C15.4991 6.05739 15.6506 6.20116 15.9535 6.20301C16.2147 6.20487 16.4759 6.20301 16.7361 6.20301C17.0293 6.20301 17.1924 6.04905 17.1934 5.76709C17.1934 5.16515 17.1934 4.56227 17.1934 3.96033L17.1944 3.9594Z" fill="#A4A4A4"/>
</g>
<defs>
<clipPath id="clip0_720_1320">
<rect width="22.0691" height="23" fill="white" transform="translate(0.218201)"/>
</clipPath>
</defs>
</svg>
