<svg width="12" height="14" viewBox="0 0 12 14" fill="none" xmlns="http://www.w3.org/2000/svg">
<g id="ThdZW6">
<path id="Vector" d="M1.84816 1.89835C1.84816 1.65509 1.84816 1.42243 1.84816 1.18976C1.84869 0.585058 2.27157 0.0905868 2.86868 0.0238094C3.14954 -0.00745941 3.43569 -0.0143491 3.71655 0.0428887C4.17586 0.135635 4.56232 0.560679 4.5998 1.02971C4.61986 1.28092 4.61194 1.53425 4.61617 1.78705C4.61669 1.8215 4.61617 1.85595 4.61617 1.89517H7.38153C7.38153 1.86973 7.38153 1.84164 7.38153 1.81355C7.38628 1.5528 7.37836 1.29152 7.3979 1.03236C7.4338 0.548489 7.88097 0.0444786 8.44534 0.0200995C8.7357 0.00738002 9.02766 -0.0159391 9.31591 0.0582581C9.76203 0.173794 10.1379 0.638056 10.1464 1.09914C10.1511 1.36254 10.1474 1.62594 10.1474 1.89994C10.187 1.89994 10.215 1.89994 10.2435 1.89994C10.517 1.89994 10.7899 1.89888 11.0634 1.89941C11.5787 1.89941 11.9936 2.30484 11.9968 2.82369C12.0016 3.53068 11.9979 4.23821 11.9979 4.94573C11.9979 5.83292 11.9979 6.72063 11.9979 7.60782C11.9979 8.495 11.9979 9.38272 11.9984 10.2699C11.9984 10.9016 11.9958 11.5339 12 12.1656C12.0021 12.499 11.8706 12.7629 11.614 12.9675C11.4525 13.0963 11.2614 13.1424 11.0592 13.1424C9.54557 13.1429 8.03143 13.1424 6.51782 13.1424C4.66632 13.1424 2.81535 13.1424 0.963859 13.1424C0.479735 13.1424 0.108591 12.8408 0.0125056 12.3639C-0.0028047 12.2886 0.000362961 12.2086 0.000362961 12.1312C0.000362961 10.5958 0.000890903 9.05996 0.000890903 7.52461C0.000890903 5.97018 -0.000692925 4.41575 0.000362961 2.86132C0.000362961 2.45536 0.186727 2.15698 0.54784 1.98102C0.656596 1.92803 0.788054 1.90683 0.910536 1.90206C1.2178 1.89146 1.52559 1.89835 1.84869 1.89835H1.84816ZM11.0724 4.71572H0.924791V12.2075H11.0719V4.71572H11.0724ZM3.6891 2.26244C3.6891 1.91531 3.69016 1.5687 3.6891 1.22156C3.68857 1.05303 3.61044 0.976183 3.44361 0.974063C3.29367 0.972473 3.14373 0.971413 2.9938 0.974063C2.85495 0.977243 2.7689 1.06469 2.76837 1.20407C2.76731 1.90577 2.76784 2.60799 2.76942 3.30968C2.76942 3.45278 2.85865 3.54022 3.00066 3.54234C3.14268 3.54446 3.2847 3.54499 3.42671 3.54287C3.61836 3.54022 3.69016 3.46497 3.69016 3.27046C3.69016 2.93446 3.69016 2.59792 3.69016 2.26191L3.6891 2.26244ZM9.22986 2.26244C9.22986 2.26244 9.22986 2.26244 9.22933 2.26244C9.22933 2.24071 9.22933 2.21951 9.22933 2.19779C9.22933 1.87503 9.22986 1.55227 9.22933 1.22951C9.22933 1.05674 9.15225 0.977243 8.98067 0.974063C8.84129 0.971413 8.70192 0.972473 8.56254 0.974063C8.38568 0.975653 8.3086 1.0525 8.30807 1.23057C8.30754 1.91902 8.30754 2.60746 8.30807 3.2959C8.30807 3.46126 8.39043 3.5434 8.55515 3.54446C8.69716 3.54552 8.83918 3.54446 8.98067 3.54446C9.14011 3.54446 9.2288 3.45649 9.22933 3.29537C9.22933 2.95142 9.22933 2.60693 9.22933 2.26297L9.22986 2.26244Z" fill="#005D4B"/>
</g>
</svg>
