<svg width="21" height="22" viewBox="0 0 21 22" fill="none" xmlns="http://www.w3.org/2000/svg">
<path d="M19.8409 0.5H1.15908C0.518875 0.5 0 1.01888 0 1.65908V20.3412C0 20.9811 0.518875 21.5 1.15908 21.5H11.2166V13.3677H8.47992V10.1985H11.2166V7.86108C11.2166 5.14858 12.8733 3.67188 15.293 3.67188C16.452 3.67188 17.4481 3.75792 17.7386 3.79671V6.63142L16.0603 6.63229C14.7443 6.63229 14.4897 7.25762 14.4897 8.17521V10.1988H17.628L17.2194 13.368H14.4897V21.5H19.8412C20.4811 21.5 21 20.9811 21 20.3409V1.65908C21 1.01888 20.4811 0.5 19.8409 0.5Z" fill="black"/>
</svg>
