<svg width="14" height="15" viewBox="0 0 14 15" fill="none" xmlns="http://www.w3.org/2000/svg">
<g id="&#240;&#159;&#166;&#134; icon &#34;yoga&#34;">
<path id="Vector" d="M8.71557 9.57861L9.28704 10.8972C9.28704 10.8972 11.8584 11.4826 11.8584 12.8751C11.8584 13.864 10.7156 13.864 10.7156 13.864H7.66797L6.16797 12.9707" stroke="#003731" stroke-width="0.8" stroke-linecap="round" stroke-linejoin="round"/>
<path id="Vector_2" d="M5.28543 9.57861L4.714 10.8972C4.714 10.8972 2.14258 11.4826 2.14258 12.8751C2.14258 13.864 3.28543 13.864 3.28543 13.864H4.66638L6.1664 12.9707L7.99974 11.72" stroke="#003731" stroke-width="0.8" stroke-linecap="round" stroke-linejoin="round"/>
<path id="Vector_3" d="M1 10.2379C1 10.2379 2.42857 9.9083 3.28571 9.57862C4.14286 4.96359 6.71427 5.29324 7 5.29324C7.28573 5.29324 9.85713 4.96359 10.7143 9.57862C11.5714 9.9083 13 10.2379 13 10.2379" stroke="#003731" stroke-width="0.8" stroke-linecap="round" stroke-linejoin="round"/>
<path id="Vector_4" d="M7.0013 3.85865C7.7377 3.85865 8.33464 3.21872 8.33464 2.42932C8.33464 1.63993 7.7377 1 7.0013 1C6.2649 1 5.66797 1.63993 5.66797 2.42932C5.66797 3.21872 6.2649 3.85865 7.0013 3.85865Z" stroke="#003731" stroke-width="0.8" stroke-linecap="round" stroke-linejoin="round"/>
</g>
</svg>
