<svg width="11" height="12" viewBox="0 0 11 12" fill="none" xmlns="http://www.w3.org/2000/svg">
<g id="ThdZW6">
<path id="Vector" d="M1.68748 1.7333C1.68748 1.51119 1.68748 1.29876 1.68748 1.08633C1.68796 0.534192 2.07408 0.0827111 2.61927 0.0217394C2.87572 -0.00681088 3.13699 -0.0131016 3.39343 0.0391599C3.81281 0.123843 4.16567 0.511933 4.19989 0.940187C4.21821 1.16956 4.21098 1.40086 4.21483 1.63168C4.21532 1.66314 4.21483 1.69459 4.21483 1.7304H6.73978C6.73978 1.70717 6.73978 1.68153 6.73978 1.65588C6.74412 1.4178 6.73688 1.17923 6.75472 0.942606C6.7875 0.500803 7.19579 0.0406116 7.71109 0.0183521C7.97622 0.0067384 8.24279 -0.0145533 8.50598 0.0531931C8.91331 0.158684 9.25652 0.582583 9.26424 1.00358C9.26857 1.24408 9.2652 1.48458 9.2652 1.73476C9.30135 1.73476 9.3269 1.73476 9.35293 1.73476C9.60263 1.73476 9.85185 1.73379 10.1015 1.73427C10.572 1.73427 10.9509 2.10446 10.9538 2.5782C10.9581 3.22372 10.9548 3.86973 10.9548 4.51574C10.9548 5.3258 10.9548 6.13634 10.9548 6.94639C10.9548 7.75644 10.9548 8.56698 10.9552 9.37703C10.9552 9.95384 10.9528 10.5311 10.9567 11.108C10.9586 11.4123 10.8386 11.6533 10.6043 11.8401C10.4568 11.9577 10.2823 11.9998 10.0977 11.9998C8.71567 12.0003 7.33317 11.9998 5.95115 11.9998C4.26063 11.9998 2.57059 11.9998 0.88006 11.9998C0.438027 11.9998 0.0991502 11.7244 0.0114184 11.2889C-0.00256085 11.2202 0.000331405 11.1471 0.000331405 11.0765C0.000331405 9.67463 0.000813448 8.27228 0.000813448 6.87042C0.000813448 5.45113 -0.000632682 4.03184 0.000331405 2.61256C0.000331405 2.24189 0.170493 1.96945 0.50021 1.80879C0.599511 1.7604 0.71954 1.74105 0.831374 1.73669C1.11192 1.72701 1.39295 1.7333 1.68796 1.7333H1.68748ZM10.1097 4.30573H0.844389V11.1462H10.1093V4.30573H10.1097ZM3.36837 2.06574C3.36837 1.74879 3.36933 1.43232 3.36837 1.11536C3.36788 0.961479 3.29654 0.891313 3.14422 0.889377C3.00732 0.887925 2.87042 0.886958 2.73352 0.889377C2.60674 0.89228 2.52817 0.972124 2.52768 1.09939C2.52672 1.74008 2.5272 2.38125 2.52865 3.02194C2.52865 3.15259 2.61011 3.23243 2.73978 3.23437C2.86945 3.23631 2.99912 3.23679 3.12879 3.23485C3.30377 3.23243 3.36933 3.16372 3.36933 2.98613C3.36933 2.67933 3.36933 2.37206 3.36933 2.06526L3.36837 2.06574ZM8.42741 2.06574C8.42741 2.06574 8.42741 2.06574 8.42693 2.06574C8.42693 2.0459 8.42693 2.02655 8.42693 2.00671C8.42693 1.71201 8.42741 1.41732 8.42693 1.12262C8.42693 0.964866 8.35655 0.89228 8.19989 0.889377C8.07263 0.886958 7.94537 0.887925 7.81811 0.889377C7.65662 0.890829 7.58624 0.960995 7.58576 1.12359C7.58528 1.75218 7.58528 2.38077 7.58576 3.00936C7.58576 3.16033 7.66096 3.23534 7.81136 3.23631C7.94103 3.23727 8.0707 3.23631 8.19989 3.23631C8.34546 3.23631 8.42645 3.15598 8.42693 3.00887C8.42693 2.69482 8.42693 2.38028 8.42693 2.06623L8.42741 2.06574Z" fill="#A4A4A4"/>
</g>
</svg>
