<svg width="14" height="15" viewBox="0 0 14 15" fill="none" xmlns="http://www.w3.org/2000/svg">
<g id="&#240;&#159;&#166;&#134; icon &#34;bed&#34;">
<path id="Vector" d="M13 2.30758V12.7682C13 13.4904 12.4031 14.0758 11.6667 14.0758H2.33333C1.59695 14.0758 1 13.4904 1 12.7682V2.30758C1 1.58542 1.59695 1 2.33333 1H11.6667C12.4031 1 13 1.58542 13 2.30758Z" stroke="#003731" stroke-width="0.8" stroke-linecap="round" stroke-linejoin="round"/>
<path id="Vector_2" d="M1 4.9997C1 4.9997 4.37101 4.9997 5.03056 4.80407C5.6901 4.60844 5.49468 3.6084 5.49468 3.6084" stroke="#003731" stroke-width="0.8" stroke-linecap="round" stroke-linejoin="round"/>
<path id="Vector_3" d="M13 4.9997C13 4.9997 9.62899 4.9997 8.96944 4.80407C8.3099 4.60844 8.50532 3.6084 8.50532 3.6084" stroke="#003731" stroke-width="0.8" stroke-linecap="round" stroke-linejoin="round"/>
</g>
</svg>
