<svg width="39" height="39" viewBox="0 0 39 39" fill="none" xmlns="http://www.w3.org/2000/svg">
<g id="&#240;&#159;&#166;&#134; icon &#34;vk with circle&#34;">
<path id="Vector" d="M19.7812 0.28125C9.16689 0.28125 0.5625 8.88564 0.5625 19.5C0.5625 30.1144 9.16689 38.7188 19.7812 38.7188C30.3956 38.7188 39 30.1144 39 19.5C39 8.88564 30.3956 0.28125 19.7812 0.28125ZM27.1725 21.9644C27.1725 21.9644 28.8721 23.642 29.2905 24.4208C29.3025 24.4368 29.3085 24.4528 29.3125 24.4608C29.4827 24.7471 29.5228 24.9693 29.4387 25.1355C29.2985 25.4118 28.8181 25.5479 28.6539 25.5599H25.651C25.4428 25.5599 25.0063 25.5059 24.4778 25.1415C24.0714 24.8572 23.671 24.3908 23.2807 23.9363C22.6981 23.2597 22.1936 22.6751 21.6851 22.6751C21.6205 22.675 21.5563 22.6851 21.4949 22.7051C21.1105 22.8292 20.6181 23.3778 20.6181 24.8392C20.6181 25.2957 20.2577 25.5579 20.0035 25.5579H18.6281C18.1597 25.5579 15.7193 25.3938 13.5572 23.1135C10.9106 20.3208 8.52827 14.7193 8.50825 14.6673C8.35811 14.3049 8.66841 14.1107 9.00674 14.1107H12.0397C12.4441 14.1107 12.5762 14.357 12.6683 14.5752C12.7764 14.8294 13.1728 15.8404 13.8234 16.9775C14.8785 18.8313 15.5251 19.5841 16.0436 19.5841C16.1408 19.5829 16.2363 19.5582 16.3219 19.512C16.9985 19.1356 16.8724 16.7233 16.8424 16.2228C16.8424 16.1287 16.8404 15.1437 16.494 14.6713C16.2458 14.329 15.8234 14.1988 15.5671 14.1508C15.6709 14.0077 15.8075 13.8916 15.9655 13.8125C16.43 13.5802 17.2668 13.5462 18.0976 13.5462H18.5601C19.4609 13.5582 19.6932 13.6163 20.0195 13.6983C20.6801 13.8565 20.6941 14.2829 20.6361 15.7423C20.6181 16.1567 20.6 16.6252 20.6 17.1777C20.6 17.2979 20.594 17.426 20.594 17.5621C20.574 18.3048 20.55 19.1477 21.0745 19.494C21.1429 19.5369 21.222 19.5598 21.3027 19.5601C21.4849 19.5601 22.0334 19.5601 23.5189 17.0116C23.977 16.1913 24.3751 15.3389 24.7101 14.4611C24.7401 14.409 24.8282 14.2489 24.9323 14.1868C25.0091 14.1477 25.0943 14.1277 25.1805 14.1288H28.746C29.1344 14.1288 29.4006 14.1868 29.4507 14.337C29.5388 14.5752 29.4347 15.3019 27.8071 17.5061L27.0804 18.465C25.6049 20.3989 25.6049 20.497 27.1725 21.9644Z" fill="#939291"/>
</g>
</svg>
