<svg width="22" height="22" viewBox="0 0 22 22" fill="none" xmlns="http://www.w3.org/2000/svg">
<g clip-path="url(#clip0_657_3302)">
<path d="M4.68216 0C5.52184 0.204042 6.12094 0.759348 6.67527 1.37492C7.47751 2.26556 8.20142 3.21561 8.73811 4.29135C9.00538 4.82728 9.03809 5.39378 8.69507 5.92713C8.61932 6.04508 8.51216 6.14581 8.40671 6.24008C7.99096 6.61201 7.52485 6.93874 7.16118 7.355C6.53583 8.0713 6.44157 8.90469 7.085 9.68728C7.19389 9.81987 7.31052 9.94686 7.43189 10.0682C8.9292 11.568 10.4265 13.0673 11.9273 14.5636C12.2522 14.8874 12.5905 15.196 13.06 15.3019C13.6647 15.4384 14.1945 15.2399 14.6232 14.8495C15.0278 14.481 15.3747 14.0445 15.7177 13.6149C16.0934 13.144 16.6856 12.9446 17.3587 13.131C17.5632 13.1874 17.7702 13.2632 17.9514 13.3717C19.085 14.0488 20.158 14.809 21.076 15.7668C21.4741 16.1822 21.827 16.632 21.9496 17.2166C22.0745 17.812 21.9772 18.3836 21.5774 18.8305C20.8436 19.6509 20.0908 20.4606 19.1582 21.0702C17.5731 22.1059 15.8864 22.2523 14.1184 21.6289C12.8806 21.1924 11.8046 20.4792 10.8147 19.6337C10.2983 19.1925 9.79428 18.734 9.31353 18.2541C7.19088 16.1344 5.06305 14.02 2.96966 11.8719C1.84463 10.7174 0.914138 9.41221 0.375726 7.8707C0.2238 7.43593 0.152787 6.97274 0.0443297 6.5229C0.030127 6.46737 0.0146331 6.41313 0 6.35846C0 6.00031 0 5.64259 0 5.28444C0.0133419 5.25259 0.0352916 5.22159 0.0391651 5.18845C0.139014 4.29738 0.479449 3.49972 0.969658 2.75759C1.4108 2.09036 2.00043 1.55787 2.54659 0.984484C2.98085 0.528616 3.44222 0.130432 4.08048 0H4.68173H4.68216Z" fill="white"/>
</g>
<defs>
<clipPath id="clip0_657_3302">
<rect width="22" height="22" fill="white"/>
</clipPath>
</defs>
</svg>
