<svg width="72" height="77" viewBox="0 0 72 77" fill="none" xmlns="http://www.w3.org/2000/svg">
<path d="M45.9999 51.0415L49.3335 58.733C49.3335 58.733 64.3333 62.1482 64.3333 70.2708C64.3333 76.0396 57.6666 76.0396 57.6666 76.0396H39.8889L31.1389 70.8286" stroke="#003731" stroke-linecap="round" stroke-linejoin="round"/>
<path d="M26.0002 51.0415L22.6669 58.733C22.6669 58.733 7.66693 62.1482 7.66693 70.2708C7.66693 76.0396 14.3336 76.0396 14.3336 76.0396H22.3891L31.1393 70.8286L41.8337 63.5331" stroke="#003731" stroke-linecap="round" stroke-linejoin="round"/>
<path d="M1 54.8871C1 54.8871 9.33334 52.9644 14.3333 51.0413C19.3333 24.1203 34.3332 26.0432 36 26.0432C37.6668 26.0432 52.6666 24.1203 57.6666 51.0413C62.6665 52.9644 71 54.8871 71 54.8871" stroke="#003731" stroke-linecap="round" stroke-linejoin="round"/>
<path d="M35.9999 17.6754C40.2956 17.6754 43.7777 13.9425 43.7777 9.33772C43.7777 4.73292 40.2956 1 35.9999 1C31.7043 1 28.2222 4.73292 28.2222 9.33772C28.2222 13.9425 31.7043 17.6754 35.9999 17.6754Z" stroke="#003731" stroke-linecap="round" stroke-linejoin="round"/>
</svg>
