<svg width="21" height="22" viewBox="0 0 21 22" fill="none" xmlns="http://www.w3.org/2000/svg">
<path d="M9.09703 16.9471C8.89403 17.2341 8.70183 17.3756 8.51808 17.3756C8.39558 17.3756 8.32587 17.3038 8.3037 17.1615C8.29495 17.132 8.29495 17.0203 8.29495 16.8057V13.084H7.3797V17.081C7.3797 17.4383 7.41003 17.6792 7.46049 17.8323C7.55178 18.0884 7.75537 18.2083 8.05053 18.2083C8.38712 18.2083 8.73303 18.005 9.09674 17.5873V18.1389H10.0135V13.0843H9.09703V16.9471Z" fill="black"/>
<path d="M4.05328 12.3099H5.1307V18.1389H6.1492V12.3099H7.24645V11.355H4.05328V12.3099Z" fill="black"/>
<path d="M10.2903 7.89082C10.5887 7.89082 10.7316 7.65457 10.7316 7.18178V5.03278C10.7316 4.56057 10.5887 4.3252 10.2903 4.3252C9.99166 4.3252 9.84845 4.56057 9.84845 5.03278V7.18178C9.84874 7.65428 9.99166 7.89082 10.2903 7.89082Z" fill="black"/>
<path d="M12.6683 13.0224C12.3317 13.0224 12.0179 13.2068 11.7224 13.5708V11.355H10.8063V18.1389H11.7224V17.6483C12.0281 18.0271 12.3428 18.2083 12.6683 18.2083C13.0331 18.2083 13.2781 18.0164 13.4006 17.6404C13.4616 17.426 13.4928 17.0894 13.4928 16.6219V14.6091C13.4928 14.1308 13.4616 13.7965 13.4006 13.5932C13.2779 13.2144 13.0331 13.0224 12.6683 13.0224ZM12.577 16.6936C12.577 17.1501 12.4425 17.3753 12.1786 17.3753C12.0281 17.3753 11.8752 17.3035 11.7221 17.1504V14.0692C11.8752 13.9184 12.0278 13.8467 12.1786 13.8467C12.4428 13.8467 12.577 14.0806 12.577 14.5365V16.6936Z" fill="black"/>
<path d="M15.5852 13.0229C15.1179 13.0229 14.7528 13.1953 14.4885 13.5415C14.2937 13.7967 14.2053 14.1917 14.2053 14.7315V16.5025C14.2053 17.0392 14.3051 17.4385 14.4996 17.6908C14.7642 18.0358 15.1287 18.2085 15.6082 18.2085C16.0866 18.2085 16.4619 18.0274 16.7157 17.661C16.8265 17.498 16.8989 17.3145 16.9295 17.1118C16.9377 17.0199 16.949 16.8164 16.949 16.5218V16.3876H16.0142C16.0142 16.7551 16.0029 16.9584 15.9944 17.0083C15.9422 17.253 15.8104 17.3755 15.5852 17.3755C15.2708 17.3755 15.1179 17.1422 15.1179 16.6743V15.7783H16.9493V14.7312C16.9493 14.1911 16.8574 13.7964 16.6658 13.5412C16.4094 13.195 16.0449 13.0229 15.5852 13.0229ZM16.0335 15.0162H15.1179V14.5487C15.1179 14.0814 15.2708 13.8475 15.577 13.8475C15.8801 13.8475 16.0335 14.0814 16.0335 14.5487V15.0162Z" fill="black"/>
<path d="M18.9583 0.5H2.04167C0.91875 0.5 0 1.41875 0 2.54167V19.4583C0 20.5812 0.91875 21.5 2.04167 21.5H18.9583C20.0812 21.5 21 20.5812 21 19.4583V2.54167C21 1.41875 20.0812 0.5 18.9583 0.5ZM12.4192 3.55375H13.3417V7.31392C13.3417 7.5315 13.3417 7.64437 13.3531 7.67412C13.3735 7.81762 13.4458 7.89083 13.5701 7.89083C13.755 7.89083 13.9495 7.74733 14.1546 7.45742V3.55375H15.0803V8.66083H14.1546V8.10375C13.7862 8.52637 13.4347 8.73171 13.0973 8.73171C12.7992 8.73171 12.5936 8.61067 12.5011 8.35167C12.4501 8.19737 12.4192 7.95267 12.4192 7.59217V3.55375ZM8.92296 5.21858C8.92296 4.67287 9.016 4.27358 9.21288 4.01546C9.46896 3.66662 9.82946 3.49192 10.2903 3.49192C10.754 3.49192 11.114 3.66662 11.3703 4.01546C11.564 4.27358 11.6576 4.67287 11.6576 5.21858V7.00796C11.6576 7.55046 11.5643 7.95296 11.3703 8.20933C11.114 8.55729 10.7543 8.732 10.2903 8.732C9.82917 8.732 9.46867 8.55729 9.21288 8.20933C9.016 7.95296 8.92296 7.55046 8.92296 7.00796V5.21858ZM6.44787 1.80725L7.17675 4.49846L7.87646 1.80725H8.91421L7.67987 5.88533V8.66083H6.65321V5.88533C6.56046 5.393 6.35512 4.67258 6.02612 3.71679C5.80971 3.08096 5.58425 2.44221 5.36812 1.80725H6.44787ZM17.813 18.4427C17.628 19.2486 16.9683 19.843 16.175 19.9314C14.2955 20.1414 12.3935 20.1426 10.5 20.1414C8.60621 20.1426 6.70425 20.1414 4.82504 19.9314C4.03142 19.8428 3.37283 19.2483 3.18763 18.4427C2.92367 17.2947 2.92367 16.0417 2.92367 14.8605C2.92367 13.6781 2.92658 12.426 3.19083 11.2777C3.37575 10.4721 4.03463 9.87796 4.82825 9.78929C6.70746 9.57871 8.60942 9.57812 10.5032 9.57871C12.3967 9.57812 14.2987 9.57871 16.1782 9.78929C16.9712 9.87796 17.6307 10.4721 17.8159 11.2777C18.0798 12.4262 18.0784 13.6781 18.0784 14.8605C18.0787 16.0417 18.0772 17.2947 17.813 18.4427Z" fill="black"/>
</svg>
