<svg width="13" height="14" viewBox="0 0 13 14" fill="none" xmlns="http://www.w3.org/2000/svg">
<g id="ThdZW6">
<path id="Vector" d="M2.45566 1.89835C2.45566 1.65509 2.45566 1.42243 2.45566 1.18976C2.4562 0.585058 2.88625 0.0905868 3.49347 0.0238094C3.7791 -0.00745941 4.07009 -0.0143491 4.35572 0.0428887C4.82281 0.135635 5.21582 0.560679 5.25394 1.02971C5.27434 1.28092 5.26628 1.53425 5.27058 1.78705C5.27112 1.8215 5.27058 1.85595 5.27058 1.89517H8.08282C8.08282 1.86973 8.08282 1.84164 8.08282 1.81355C8.08765 1.5528 8.07959 1.29152 8.09946 1.03236C8.13597 0.548489 8.59071 0.0444786 9.16465 0.0200995C9.45994 0.00738002 9.75684 -0.0159391 10.05 0.0582581C10.5037 0.173794 10.8859 0.638056 10.8945 1.09914C10.8993 1.36254 10.8956 1.62594 10.8956 1.89994C10.9359 1.89994 10.9643 1.89994 10.9933 1.89994C11.2714 1.89994 11.549 1.89888 11.8271 1.89941C12.3511 1.89941 12.7731 2.30484 12.7763 2.82369C12.7811 3.53068 12.7774 4.23821 12.7774 4.94573C12.7774 5.83292 12.7774 6.72063 12.7774 7.60782C12.7774 8.495 12.7774 9.38272 12.7779 10.2699C12.7779 10.9016 12.7752 11.5339 12.7795 12.1656C12.7817 12.499 12.648 12.7629 12.3871 12.9675C12.2228 13.0963 12.0284 13.1424 11.8228 13.1424C10.2835 13.1429 8.74373 13.1424 7.20446 13.1424C5.32158 13.1424 3.43924 13.1424 1.55637 13.1424C1.06404 13.1424 0.686604 12.8408 0.588889 12.3639C0.57332 12.2886 0.576541 12.2086 0.576541 12.1312C0.576541 10.5958 0.577078 9.05996 0.577078 7.52461C0.577078 5.97018 0.575467 4.41575 0.576541 2.86132C0.576541 2.45536 0.766064 2.15698 1.1333 1.98102C1.2439 1.92803 1.37758 1.90683 1.50214 1.90206C1.81461 1.89146 2.12762 1.89835 2.4562 1.89835H2.45566ZM11.8362 4.71572H1.51664V12.2075H11.8357V4.71572H11.8362ZM4.3278 2.26244C4.3278 1.91531 4.32887 1.5687 4.3278 1.22156C4.32726 1.05303 4.2478 0.976183 4.07814 0.974063C3.92567 0.972473 3.77319 0.971413 3.62071 0.974063C3.47951 0.977243 3.392 1.06469 3.39146 1.20407C3.39039 1.90577 3.39092 2.60799 3.39253 3.30968C3.39253 3.45278 3.48327 3.54022 3.62769 3.54234C3.77212 3.54446 3.91654 3.54499 4.06096 3.54287C4.25586 3.54022 4.32887 3.46497 4.32887 3.27046C4.32887 2.93446 4.32887 2.59792 4.32887 2.26191L4.3278 2.26244ZM9.96247 2.26244C9.96247 2.26244 9.96247 2.26244 9.96193 2.26244C9.96193 2.24071 9.96193 2.21951 9.96193 2.19779C9.96193 1.87503 9.96247 1.55227 9.96193 1.22951C9.96193 1.05674 9.88355 0.977243 9.70906 0.974063C9.56732 0.971413 9.42558 0.972473 9.28384 0.974063C9.10398 0.975653 9.0256 1.0525 9.02506 1.23057C9.02452 1.91902 9.02452 2.60746 9.02506 3.2959C9.02506 3.46126 9.10881 3.5434 9.27632 3.54446C9.42075 3.54552 9.56517 3.54446 9.70906 3.54446C9.8712 3.54446 9.9614 3.45649 9.96193 3.29537C9.96193 2.95142 9.96193 2.60693 9.96193 2.26297L9.96247 2.26244Z" fill="#005D4B"/>
</g>
</svg>
