<svg width="72" height="62" viewBox="0 0 72 62" fill="none" xmlns="http://www.w3.org/2000/svg">
<path d="M50.0001 9.55356C50.0001 11.8101 49.1689 13.9774 47.6842 15.5806C44.2668 19.2724 40.9526 23.1218 37.4075 26.6796C36.5951 27.4833 35.3061 27.454 34.5284 26.614L24.3154 15.5806C21.2284 12.2456 21.2284 6.86152 24.3154 3.52654C27.4328 0.15877 32.5113 0.15877 35.6284 3.52654L35.9998 3.92755L36.3708 3.52677C37.8656 1.9112 39.9012 1 42.0275 1C44.1541 1 46.1897 1.91113 47.6842 3.52654C49.1689 5.12991 50.0001 7.29712 50.0001 9.55356Z" stroke="#003731" stroke-linejoin="round"/>
<path d="M57 61.0315L70.3851 46.6828C70.7788 46.2607 71 45.6882 71 45.0912V25.3877C71 22.2795 68.6494 19.7598 65.75 19.7598C62.8506 19.7598 60.5 22.2795 60.5 25.3877V42.2716" stroke="#003731" stroke-linecap="round" stroke-linejoin="round"/>
<path d="M57.0001 46.024L60.0035 42.8044C60.3216 42.4634 60.5001 42.0011 60.5001 41.5194C60.5001 40.8309 60.1372 40.2017 59.5628 39.8937L58.0127 39.063C55.318 37.6185 52.063 38.1846 49.9326 40.4685L46.8004 43.8261C45.4876 45.2335 44.7501 47.1421 44.7501 49.1321V61.0319" stroke="#003731" stroke-linecap="round" stroke-linejoin="round"/>
<path d="M15 61.0315L1.61509 46.6828C1.22124 46.2607 1 45.6882 1 45.0912V25.3877C1 22.2795 3.3505 19.7598 6.25 19.7598C9.14951 19.7598 11.5 22.2795 11.5 25.3877V42.2716" stroke="#003731" stroke-linecap="round" stroke-linejoin="round"/>
<path d="M15.0001 46.024L11.9967 42.8044C11.6787 42.4634 11.5001 42.0011 11.5001 41.5194C11.5001 40.8309 11.8629 40.2017 12.4373 39.8937L13.9875 39.063C16.6824 37.6185 19.9372 38.1846 22.0677 40.4685L25.1999 43.8261C26.5126 45.2335 27.2501 47.1421 27.2501 49.1321V61.0319" stroke="#003731" stroke-linecap="round" stroke-linejoin="round"/>
</svg>
