<svg width="39" height="39" viewBox="0 0 39 39" fill="none" xmlns="http://www.w3.org/2000/svg">
<g id="&#240;&#159;&#166;&#134; icon &#34;telegram fill&#34;">
<path id="Vector" fill-rule="evenodd" clip-rule="evenodd" d="M38.4375 19.5C38.4375 30.1142 29.8329 38.7188 19.2188 38.7188C8.60452 38.7188 0 30.1142 0 19.5C0 8.88577 8.60452 0.28125 19.2188 0.28125C29.8329 0.28125 38.4375 8.88577 38.4375 19.5ZM19.9074 14.4694C18.0382 15.2469 14.3022 16.8561 8.69954 19.2971C7.78976 19.6589 7.31318 20.0128 7.2698 20.3589C7.19646 20.9438 7.9289 21.1741 8.92629 21.4877C9.06196 21.5305 9.20255 21.5747 9.34665 21.6214C10.3279 21.9405 11.6479 22.3136 12.3341 22.3284C12.9566 22.3418 13.6513 22.0852 14.4183 21.5585C19.6531 18.025 22.3552 16.2389 22.5249 16.2004C22.6447 16.1733 22.8104 16.1391 22.9228 16.239C23.0351 16.3388 23.0242 16.528 23.0122 16.5787C22.9397 16.888 20.0645 19.561 18.5767 20.9443C18.1129 21.3754 17.7839 21.6813 17.7166 21.7512C17.5659 21.9078 17.4123 22.0558 17.2648 22.198C16.3532 23.0768 15.6696 23.7358 17.3026 24.8121C18.0876 25.3292 18.7155 25.7568 19.3421 26.1835C20.0263 26.6495 20.7087 27.1143 21.5916 27.6931C21.8166 27.8406 22.0314 27.9937 22.2407 28.1428C23.037 28.7106 23.7525 29.2205 24.6362 29.1392C25.1498 29.0919 25.6803 28.609 25.9496 27.1689C26.5863 23.7653 27.8377 16.3906 28.127 13.3516C28.1524 13.0853 28.1206 12.7446 28.0949 12.595C28.0693 12.4454 28.0158 12.2323 27.8214 12.0745C27.5911 11.8877 27.2357 11.8483 27.0767 11.8511C26.3537 11.8638 25.2448 12.2494 19.9074 14.4694Z" fill="#939291"/>
</g>
</svg>
