<svg width="54" height="55" viewBox="0 0 54 55" fill="none" xmlns="http://www.w3.org/2000/svg">
<g id="Group 80">
<g id="&#240;&#159;&#166;&#134; icon &#34;gui gesture swipe left&#34;">
<path id="Vector" d="M31.7028 16.1521C31.5278 16.3474 31.2767 16.4495 31.0139 16.4319C30.8428 16.4206 30.6767 16.3579 30.5335 16.2507L28.8047 14.9573C28.6043 14.8072 28.4744 14.588 28.4386 14.34C28.4028 14.0916 28.4661 13.8441 28.616 13.6438L29.8195 12.0353C30.0032 11.7901 30.2882 11.6553 30.5824 11.6749C30.9845 11.7017 31.3035 11.9953 31.3763 12.4058L31.533 13.29C33.1135 13.4815 34.8295 14.0143 36.4453 14.8255C37.951 15.5815 39.3118 16.5445 40.3808 17.61C40.702 17.9303 40.7028 18.4502 40.3825 18.7715C40.2082 18.9464 39.9746 19.0263 39.7461 19.0111C39.555 18.9983 39.3675 18.9192 39.2212 18.7732C38.2745 17.8294 37.0597 16.9719 35.7082 16.2933C34.4282 15.6506 33.0886 15.2039 31.8345 14.9921L31.9076 15.4045C31.9565 15.6799 31.8817 15.9524 31.7028 16.1521ZM13.5269 35.8138L15.1819 33.0507L15.1817 30.9252C15.1796 30.0042 15.4281 29.0977 15.9004 28.3041L18.7382 23.5356C19.0831 22.9795 20.0713 22.4252 20.9925 22.4865C21.1789 22.4989 21.3581 22.5347 21.5242 22.5955C21.7873 22.6897 22.3172 22.8076 22.8297 22.9213C23.4709 23.0638 24.134 23.2111 24.584 23.3712C24.8163 23.4531 25.3272 23.572 25.8215 23.687C26.4761 23.8393 27.1532 23.9968 27.5932 24.1529C28.0234 24.3062 28.4022 24.5372 28.6927 24.8129C29.8099 23.3505 32.4884 19.8474 32.8958 19.328L32.8933 19.3259C33.2561 18.8441 33.7796 18.6003 34.3675 18.6395C35.0583 18.6855 35.7173 19.1209 36.0463 19.7491C36.3371 20.304 36.3201 20.9296 36.0003 21.4642L29.5305 32.3487C29.7125 32.4127 29.9774 32.4832 30.2997 32.5047C30.7899 32.5373 31.2737 32.4463 31.7386 32.2337L31.8709 32.1735C32.0378 32.0975 32.1917 32.0274 32.3368 31.9603C32.7122 31.7893 33.0926 31.7154 33.4675 31.7404C34.2207 31.7906 34.8683 32.2456 35.1576 32.9279C35.4552 33.6297 35.3144 34.425 34.781 35.0554C33.7792 36.2393 30.6571 38.4178 26.1103 39.6461L24.4976 42.3441C24.2605 42.7426 23.8247 42.9709 23.3604 42.94C23.1695 42.9273 22.9813 42.8687 22.8166 42.7707L13.9527 37.4959C13.6719 37.3288 13.4726 37.0615 13.392 36.7435C13.3113 36.4256 13.3587 36.0961 13.5269 35.8138Z" fill="#005D4B"/>
</g>
</g>
</svg>
