<svg width="22" height="20" viewBox="0 0 22 20" fill="none" xmlns="http://www.w3.org/2000/svg">
<g id="&#240;&#159;&#166;&#134; icon &#34;camera&#34;">
<path id="Vector" d="M21.9872 4.8097V17.1775C21.9872 18.3155 21.0639 19.2388 19.9259 19.2388H2.0613C0.92329 19.2388 0 18.3155 0 17.1775V4.8097C0 3.67169 0.92329 2.7484 2.0613 2.7484H5.84035L6.36855 1.33555C6.66916 0.532502 7.43785 0 8.29673 0H13.6862C14.545 0 15.3137 0.532502 15.6143 1.33555L16.1468 2.7484H19.9259C21.0639 2.7484 21.9872 3.67169 21.9872 4.8097ZM16.1468 10.9936C16.1468 8.15072 13.8365 5.84035 10.9936 5.84035C8.15072 5.84035 5.84035 8.15072 5.84035 10.9936C5.84035 13.8365 8.15072 16.1468 10.9936 16.1468C13.8365 16.1468 16.1468 13.8365 16.1468 10.9936ZM14.7726 10.9936C14.7726 13.0764 13.0764 14.7726 10.9936 14.7726C8.91082 14.7726 7.21454 13.0764 7.21454 10.9936C7.21454 8.91082 8.91082 7.21454 10.9936 7.21454C13.0764 7.21454 14.7726 8.91082 14.7726 10.9936Z" fill="white"/>
</g>
</svg>
