<svg width="49" height="30" viewBox="0 0 49 30" fill="none" xmlns="http://www.w3.org/2000/svg">
<g id="Component 112">
<path id="Arrow 26" d="M47.1492 16.3041C47.7014 16.3097 48.1536 15.8665 48.1591 15.3142C48.1646 14.762 47.7214 14.3098 47.1692 14.3042L47.1492 16.3041ZM6.30008 14.188C5.90568 14.5746 5.89935 15.2077 6.28596 15.6022L12.586 22.0295C12.9726 22.4239 13.6058 22.4303 14.0002 22.0437C14.3946 21.6571 14.4009 21.0239 14.0143 20.6295L8.41423 14.9163L14.1273 9.31638C14.5217 8.92978 14.528 8.29665 14.1414 7.90223C13.7548 7.50782 13.1217 7.50148 12.7273 7.88808L6.30008 14.188ZM47.1692 14.3042L7.01008 13.9022L6.9901 15.9021L47.1492 16.3041L47.1692 14.3042Z" fill="white"/>
</g>
</svg>
