<svg width="49" height="30" viewBox="0 0 49 30" fill="none" xmlns="http://www.w3.org/2000/svg">
<g id="Component 113">
<path id="Arrow 25" d="M1.84886 14.4317C1.2966 14.4262 0.844434 14.8694 0.838917 15.4216C0.833401 15.9739 1.27662 16.4261 1.82888 16.4316L1.84886 14.4317ZM42.698 16.5478C43.0924 16.1612 43.0987 15.5281 42.7121 15.1337L36.412 8.70633C36.0254 8.31192 35.3923 8.30558 34.9979 8.69218C34.6035 9.07877 34.5971 9.71191 34.9837 10.1063L40.5838 15.8195L34.8707 21.4195C34.4763 21.8061 34.47 22.4392 34.8566 22.8336C35.2432 23.228 35.8764 23.2344 36.2708 22.8478L42.698 16.5478ZM1.82888 16.4316L41.988 16.8336L42.0079 14.8337L1.84886 14.4317L1.82888 16.4316Z" fill="white"/>
</g>
</svg>
