<svg width="9" height="16" viewBox="0 0 9 16" fill="none" xmlns="http://www.w3.org/2000/svg">
<path d="M4.14404 15C4.14404 15.2761 4.3679 15.5 4.64404 15.5C4.92019 15.5 5.14404 15.2761 5.14404 15L4.14404 15ZM4.9976 0.202002C4.80233 0.00673962 4.48575 0.00673961 4.29049 0.202002L1.10851 3.38398C0.913247 3.57924 0.913247 3.89583 1.10851 4.09109C1.30377 4.28635 1.62035 4.28635 1.81562 4.09109L4.64404 1.26266L7.47247 4.09109C7.66773 4.28635 7.98432 4.28635 8.17958 4.09109C8.37484 3.89583 8.37484 3.57924 8.17958 3.38398L4.9976 0.202002ZM5.14404 15L5.14404 0.555555L4.14404 0.555555L4.14404 15L5.14404 15Z" fill="#FCF2EA"/>
</svg>
