<svg width="23" height="15" viewBox="0 0 23 15" fill="none" xmlns="http://www.w3.org/2000/svg">
<path id="Arrow 1" d="M21.3214 6.5C21.8737 6.5 22.3214 6.94772 22.3214 7.5C22.3214 8.05228 21.8737 8.5 21.3214 8.5V6.5ZM0.971449 8.20711C0.580925 7.81658 0.580925 7.18342 0.971449 6.79289L7.33541 0.428932C7.72593 0.0384078 8.3591 0.0384078 8.74962 0.428932C9.14015 0.819457 9.14015 1.45262 8.74962 1.84315L3.09277 7.5L8.74962 13.1569C9.14015 13.5474 9.14015 14.1805 8.74962 14.5711C8.3591 14.9616 7.72593 14.9616 7.33541 14.5711L0.971449 8.20711ZM21.3214 8.5H1.67856V6.5H21.3214V8.5Z" fill="#005D4B"/>
</svg>
