<svg width="23" height="15" viewBox="0 0 23 15" fill="none" xmlns="http://www.w3.org/2000/svg">
<path id="Arrow 1" d="M1.67859 6.5C1.1263 6.5 0.678589 6.94772 0.678589 7.5C0.678589 8.05228 1.1263 8.5 1.67859 8.5V6.5ZM22.0286 8.20711C22.4191 7.81658 22.4191 7.18342 22.0286 6.79289L15.6646 0.428932C15.2741 0.0384078 14.6409 0.0384078 14.2504 0.428932C13.8599 0.819457 13.8599 1.45262 14.2504 1.84315L19.9072 7.5L14.2504 13.1569C13.8599 13.5474 13.8599 14.1805 14.2504 14.5711C14.6409 14.9616 15.2741 14.9616 15.6646 14.5711L22.0286 8.20711ZM1.67859 8.5H21.3214V6.5H1.67859V8.5Z" fill="#005D4B"/>
</svg>