<svg width="14" height="19" viewBox="0 0 14 19" fill="none" xmlns="http://www.w3.org/2000/svg">
<path d="M1.10557 17.2901C0.858584 17.7841 1.05881 18.3847 1.55279 18.6317C2.04676 18.8787 2.64744 18.6785 2.89443 18.1845L1.10557 17.2901ZM10.9487 1.42108C10.774 0.897133 10.2077 0.613973 9.68377 0.788621L1.14562 3.63467C0.621679 3.80932 0.338519 4.37564 0.513167 4.89958C0.687815 5.42353 1.25414 5.70669 1.77808 5.53204L9.36754 3.00222L11.8974 10.5917C12.072 11.1156 12.6383 11.3988 13.1623 11.2241C13.6862 11.0495 13.9694 10.4832 13.7947 9.95923L10.9487 1.42108ZM2.89443 18.1845L10.8944 2.18452L9.10557 1.29009L1.10557 17.2901L2.89443 18.1845Z" fill="#ECE8E3"/>
</svg>
