<svg width="193" height="74" viewBox="0 0 193 74" fill="none" xmlns="http://www.w3.org/2000/svg">
<g clip-path="url(#clip0_692_1407)">
<path d="M3.73264 34.098C2.59546 33.4796 1.69909 32.6051 1.04354 31.4655C0.387989 30.326 0.0579834 28.9965 0.0579834 27.4727C0.0579834 25.9489 0.405828 24.5664 1.10152 23.3606C1.7972 22.1548 2.76046 21.2184 3.9913 20.5471C5.22213 19.8801 6.62243 19.5444 8.18327 19.5444C8.98598 19.5444 9.72627 19.6416 10.3997 19.8315C11.073 20.0259 11.6305 20.2511 12.0631 20.5161C12.4956 20.7812 12.7944 21.0285 12.955 21.2538V25.6662H12.5358C12.5358 24.4736 12.3351 23.4754 11.9337 22.6672C11.5324 21.8589 10.9883 21.2582 10.2971 20.8695C9.60586 20.4808 8.8299 20.282 7.96029 20.282C7.09068 20.282 6.14972 20.4941 5.22213 20.9181C4.29009 21.3421 3.50967 22.0444 2.87195 23.0249C2.23424 24.0055 1.91761 25.2687 1.91761 26.8234C1.94437 28.4665 2.25654 29.849 2.84966 30.9664C3.44277 32.0883 4.20982 32.9231 5.14632 33.4708C6.08282 34.0229 7.07284 34.2967 8.11637 34.2967C9.54789 34.2967 10.8233 33.8153 11.9471 32.8436C13.0709 31.8763 13.9004 30.538 14.4355 28.8287H14.8146C14.4668 30.0477 13.945 31.1254 13.2493 32.0574C12.5536 32.9893 11.7152 33.7181 10.7297 34.2437C9.74411 34.7693 8.67382 35.0299 7.50988 35.0299C6.1185 35.0299 4.85199 34.7208 3.71927 34.1068L3.73264 34.098Z" fill="#333333"/>
<path d="M23.8184 34.8048H19.1002V34.5663L20.6075 33.9303V20.4368H16.6965L15.314 22.7822H14.9929L15.6975 19.7036H27.2388L27.939 22.7822H27.6179L26.2354 20.4368H22.3244V33.9303L23.8317 34.5663V34.8048H23.8184Z" fill="#333333"/>
<path d="M29.2189 34.8049V34.5664L30.7262 33.9303V20.5517L29.2189 19.9377V19.6992H35.4176C36.2739 19.6992 37.0855 19.8406 37.8481 20.1188C38.6107 20.3971 39.2305 20.8255 39.7033 21.3997C40.176 21.9739 40.4168 22.6762 40.4168 23.4977C40.4168 24.3193 40.167 25.0613 39.672 25.6841C39.177 26.3068 38.5215 26.7839 37.7054 27.1151C36.8893 27.4464 36.0197 27.6098 35.0965 27.6098H32.4297V33.9303L33.9371 34.5664V34.8049H29.2189ZM34.9182 26.8545C36.0955 26.8545 37.0186 26.5674 37.6875 25.9888C38.3565 25.4146 38.6909 24.5887 38.6909 23.5154C38.6909 22.4421 38.352 21.6647 37.6786 21.1789C37.0008 20.6974 36.0821 20.4545 34.9182 20.4545H32.4297V26.8545H34.9182Z" fill="#333333"/>
<path d="M45.4338 34.0317C44.3635 33.3692 43.5118 32.4505 42.8874 31.28C42.2586 30.1051 41.942 28.7933 41.942 27.3358C41.942 25.8782 42.2854 24.4781 42.9677 23.2899C43.65 22.1062 44.5508 21.1831 45.6746 20.5294C46.7985 19.8757 47.9936 19.5444 49.269 19.5444C50.5445 19.5444 51.7218 19.8713 52.8188 20.5294C53.9159 21.1875 54.79 22.0885 55.4366 23.2413C56.0832 24.3941 56.4088 25.6794 56.4088 27.0973C56.4088 28.5151 56.0565 29.9285 55.3563 31.1431C54.6562 32.3577 53.7241 33.3074 52.5691 33.9964C51.4096 34.6854 50.1922 35.0299 48.9078 35.0299C47.6235 35.0299 46.5041 34.6987 45.4338 34.0361V34.0317ZM51.8868 33.6121C52.6315 33.1616 53.2336 32.4505 53.7018 31.4744C54.1701 30.4982 54.4064 29.2792 54.4064 27.8084C54.4064 26.2051 54.1567 24.8314 53.6528 23.6919C53.1488 22.5523 52.4799 21.6999 51.646 21.1301C50.8076 20.5603 49.8845 20.2732 48.8677 20.2732C48.065 20.2732 47.2801 20.4808 46.5086 20.8916C45.7371 21.3023 45.0949 21.9825 44.5821 22.9366C44.0692 23.8906 43.8106 25.1229 43.8106 26.6335C43.8106 28.2236 44.0915 29.5972 44.6534 30.7588C45.2153 31.9205 45.9333 32.795 46.8118 33.3913C47.6859 33.9876 48.5867 34.2879 49.5099 34.2879C50.3527 34.2879 51.1465 34.0626 51.8868 33.6121Z" fill="#333333"/>
<path d="M63.0133 34.8049H58.0989V34.5664L59.6062 33.9303V20.5517L58.0989 19.9377V19.6992H67.1473L67.8519 22.7778H67.5709L66.1082 20.4324H61.3142V33.8862L63.0177 34.5619V34.8004L63.0133 34.8049Z" fill="#333333"/>
<path d="M70.4161 34.8047H66.1038V34.5662L67.6869 34.0892L73.3059 20.6354L72.8243 19.54H74.4699L80.8515 34.0892L82.3766 34.5662V34.8047H77.2615V34.5662L78.9071 34.0892L76.5792 28.6829H70.6971L68.4718 34.0892L70.4161 34.5662V34.8047ZM73.5646 21.6866L70.9959 27.9276H76.2537L73.5646 21.6866Z" fill="#333333"/>
<path d="M87.737 34.8049H83.0188V34.5664L84.5261 33.9303V20.5517L83.0188 19.9377V19.6992H87.737V19.9377L86.2297 20.5517V26.4747H93.6548V20.5517L92.1475 19.9377V19.6992H96.8612V19.9377L95.3539 20.5517V33.9303L96.8612 34.5664V34.8049H92.1475V34.5664L93.6548 33.9303V27.23H86.2297V33.9303L87.737 34.5664V34.8049Z" fill="#333333"/>
<path d="M102.025 34.0317C100.955 33.3692 100.103 32.4505 99.479 31.28C98.8502 30.1051 98.5336 28.7933 98.5336 27.3358C98.5336 25.8782 98.877 24.4781 99.5593 23.2899C100.242 22.1062 101.142 21.1831 102.266 20.5294C103.39 19.8757 104.585 19.5444 105.861 19.5444C107.136 19.5444 108.313 19.8713 109.41 20.5294C110.507 21.1875 111.382 22.0885 112.028 23.2413C112.675 24.3941 113 25.6794 113 27.0973C113 28.5151 112.648 29.9285 111.948 31.1431C111.248 32.3577 110.316 33.3074 109.161 33.9964C108.001 34.6854 106.784 35.0299 105.499 35.0299C104.215 35.0299 103.096 34.6987 102.025 34.0361V34.0317ZM108.478 33.6121C109.223 33.1616 109.825 32.4505 110.293 31.4744C110.762 30.4982 110.998 29.2792 110.998 27.8084C110.998 26.2051 110.748 24.8314 110.244 23.6919C109.74 22.5523 109.071 21.6999 108.238 21.1301C107.399 20.5603 106.476 20.2732 105.459 20.2732C104.657 20.2732 103.872 20.4808 103.1 20.8916C102.329 21.3023 101.686 21.9825 101.174 22.9366C100.661 23.8906 100.402 25.1229 100.402 26.6335C100.402 28.2236 100.683 29.5972 101.245 30.7588C101.807 31.9205 102.525 32.795 103.403 33.3913C104.277 33.9876 105.178 34.2879 106.101 34.2879C106.944 34.2879 107.738 34.0626 108.478 33.6121Z" fill="#333333"/>
<path d="M114.686 34.8049V34.5664L116.193 33.948V20.5517L114.686 19.9377V19.6992H120.586C121.656 19.6992 122.593 19.8538 123.396 20.1674C124.198 20.481 124.814 20.9183 125.242 21.488C125.67 22.0578 125.884 22.7203 125.884 23.4756C125.884 24.3237 125.59 25.0789 125.001 25.7415C124.412 26.404 123.627 26.881 122.651 27.1725C123.855 27.3713 124.818 27.813 125.541 28.4932C126.263 29.1778 126.624 29.9817 126.624 30.9092C126.624 31.6777 126.388 32.3579 125.911 32.9454C125.438 33.5372 124.765 33.9922 123.895 34.319C123.025 34.6459 122.022 34.8049 120.885 34.8049H114.686ZM120.305 26.8722C121.509 26.8722 122.45 26.5895 123.132 26.0153C123.815 25.4455 124.154 24.5843 124.154 23.4315C124.154 22.4509 123.783 21.7001 123.052 21.1877C122.316 20.6709 121.25 20.4148 119.859 20.4148H117.892V26.8722H120.301H120.305ZM120.787 34.0098C122.031 34.0098 123.016 33.7227 123.748 33.153C124.475 32.5832 124.84 31.7837 124.84 30.7458C124.84 29.7785 124.461 29.0144 123.699 28.449C122.936 27.8881 121.924 27.6054 120.671 27.6054H117.901V34.0054H120.791L120.787 34.0098Z" fill="#333333"/>
<path d="M132.185 34.098C131.048 33.4796 130.152 32.6051 129.496 31.4655C128.841 30.326 128.511 28.9965 128.511 27.4727C128.511 25.9489 128.858 24.5664 129.554 23.3606C130.25 22.1548 131.213 21.2184 132.444 20.5471C133.675 19.8801 135.075 19.5444 136.636 19.5444C137.439 19.5444 138.179 19.6416 138.852 19.8315C139.526 20.0259 140.083 20.2511 140.516 20.5161C140.948 20.7812 141.247 21.0285 141.408 21.2538V25.6662H140.988C140.988 24.4736 140.788 23.4754 140.386 22.6672C139.985 21.8589 139.441 21.2582 138.75 20.8695C138.058 20.4808 137.283 20.282 136.413 20.282C135.543 20.282 134.602 20.4941 133.675 20.9181C132.743 21.3421 131.962 22.0444 131.325 23.0249C130.687 24.0055 130.37 25.2687 130.37 26.8234C130.397 28.4665 130.709 29.849 131.302 30.9664C131.895 32.0883 132.662 32.9231 133.599 33.4708C134.535 34.0229 135.525 34.2967 136.569 34.2967C138.001 34.2967 139.276 33.8153 140.4 32.8436C141.524 31.8763 142.353 30.538 142.888 28.8287H143.267C142.919 30.0477 142.398 31.1254 141.702 32.0574C141.006 32.9893 140.168 33.7181 139.182 34.2437C138.197 34.7693 137.126 35.0299 135.963 35.0299C134.571 35.0299 133.305 34.7208 132.172 34.1068L132.185 34.098Z" fill="#333333"/>
<path d="M148.962 34.8049H144.244V34.5664L145.751 33.9303V20.5517L144.244 19.9377V19.6992H148.962V19.9377L147.455 20.5517V26.6558L152.449 20.375L151.085 19.9377V19.6992H155V19.9377L153.092 20.3971L148.516 26.2185L154.376 34.0717L156.182 34.5664V34.8049H151.228V34.5664L152.311 34.0893L147.455 27.7467V33.9303L148.962 34.5664V34.8049Z" fill="#333333"/>
<path d="M170.899 19.6992V19.9377L169.391 20.5517V33.9303L170.899 34.5664V34.8049H166.18V34.5664L167.688 33.9303V23.0781L160.182 32.6185V33.9303L161.69 34.5664V34.8049H156.971V34.5664L158.479 33.9303V20.5517L156.971 19.9377V19.6992H161.69V19.9377L160.182 20.5517V31.5452L167.688 22.0225V20.5517L166.18 19.9377V19.6992H170.899Z" fill="#333333"/>
<path d="M182.217 34.8049H172.767V34.5664L174.274 33.9303V20.5517L172.767 19.9377V19.6992H182.021L182.721 22.7778H182.44L180.973 20.4324H175.978V26.3775H179.367L179.947 24.6858H180.308V28.82H179.947L179.367 27.1284H175.978V34.0054H181.173L182.641 31.7175H182.921L182.217 34.8004V34.8049Z" fill="#333333"/>
<path d="M13.6462 39.5747V39.8132L12.1389 40.4272V53.8058L13.6462 54.4418V54.6804H8.928V54.4418L10.4353 53.8058V40.33H3.21087V53.8058L4.71819 54.4418V54.6804H0V54.4418L1.50732 53.8058V40.4272L0 39.8132V39.5747H13.6462Z" fill="#333333"/>
<path d="M15.5103 54.6804V54.4418L17.0176 53.8058V40.4272L15.5103 39.8132V39.5747H21.709C22.5652 39.5747 23.3769 39.716 24.1395 39.9943C24.902 40.2726 25.5219 40.701 25.9946 41.2752C26.4673 41.8494 26.7082 42.5517 26.7082 43.3732C26.7082 44.1947 26.4584 44.9368 25.9634 45.5595C25.4684 46.1823 24.8129 46.6593 23.9968 46.9906C23.1807 47.3219 22.3111 47.4853 21.3879 47.4853H18.7211V53.8058L20.2284 54.4418V54.6804H15.5103ZM21.2095 46.73C22.3869 46.73 23.31 46.4429 23.9789 45.8643C24.6479 45.2901 24.9823 44.4642 24.9823 43.3909C24.9823 42.3176 24.6434 41.5402 23.97 41.0544C23.2922 40.5729 22.3735 40.33 21.2095 40.33H18.7211V46.73H21.2095Z" fill="#333333"/>
<path d="M31.7252 53.9077C30.6549 53.2452 29.8032 52.3265 29.1788 51.156C28.55 49.9811 28.2334 48.6693 28.2334 47.2117C28.2334 45.7542 28.5768 44.354 29.2591 43.1659C29.9414 41.9822 30.8422 41.0591 31.966 40.4054C33.0898 39.7517 34.285 39.4204 35.5604 39.4204C36.8359 39.4204 38.0132 39.7473 39.1102 40.4054C40.2073 41.0635 41.0813 41.9645 41.728 43.1173C42.3746 44.2701 42.7001 45.5554 42.7001 46.9732C42.7001 48.391 42.3478 49.8044 41.6477 51.0191C40.9475 52.2337 40.0155 53.1833 38.8605 53.8724C37.701 54.5614 36.4835 54.9059 35.1992 54.9059C33.9149 54.9059 32.7955 54.5746 31.7252 53.9121V53.9077ZM38.1782 53.4881C38.9229 53.0376 39.525 52.3265 39.9932 51.3503C40.4615 50.3742 40.6978 49.1552 40.6978 47.6843C40.6978 46.081 40.4481 44.7074 39.9442 43.5678C39.4402 42.4283 38.7713 41.5758 37.9374 41.0061C37.099 40.4363 36.1758 40.1492 35.1591 40.1492C34.3563 40.1492 33.5715 40.3568 32.8 40.7676C32.0285 41.1783 31.3863 41.8585 30.8734 42.8126C30.3606 43.7666 30.1019 44.9989 30.1019 46.5095C30.1019 48.0995 30.3829 49.4732 30.9448 50.6348C31.5067 51.7964 32.2247 52.671 33.1032 53.2673C33.9773 53.8635 34.8781 54.1639 35.8012 54.1639C36.6441 54.1639 37.4379 53.9386 38.1782 53.4881Z" fill="#333333"/>
<path d="M48.4039 53.9739C47.2667 53.3556 46.3704 52.4811 45.7148 51.3415C45.0593 50.202 44.7292 48.8725 44.7292 47.3487C44.7292 45.8248 45.0771 44.4424 45.7728 43.2366C46.4685 42.0308 47.4317 41.0944 48.6626 40.423C49.8934 39.7561 51.2937 39.4204 52.8545 39.4204C53.6572 39.4204 54.3975 39.5176 55.0709 39.7075C55.7443 39.9018 56.3018 40.1271 56.7343 40.3921C57.1669 40.6571 57.4657 40.9045 57.6262 41.1297V45.5422H57.207C57.207 44.3496 57.0064 43.3514 56.605 42.5431C56.2036 41.7348 55.6596 41.1342 54.9684 40.7455C54.2771 40.3568 53.5012 40.158 52.6316 40.158C51.7619 40.158 50.821 40.37 49.8934 40.7941C48.9613 41.2181 48.1809 41.9203 47.5432 42.9009C46.9055 43.8814 46.5889 45.1447 46.5889 46.6994C46.6156 48.3425 46.9278 49.7249 47.5209 50.8424C48.114 51.9643 48.8811 52.7991 49.8176 53.3468C50.7541 53.8989 51.7441 54.1727 52.7876 54.1727C54.2192 54.1727 55.4946 53.6913 56.6184 52.7196C57.7422 51.7523 58.5717 50.414 59.1068 48.7046H59.4859C59.138 49.9237 58.6163 51.0014 57.9206 51.9334C57.2249 52.8653 56.3865 53.5941 55.4009 54.1197C54.4154 54.6453 53.3451 54.9059 52.1811 54.9059C50.7898 54.9059 49.5233 54.5967 48.3905 53.9828L48.4039 53.9739Z" fill="#333333"/>
<path d="M68.4896 54.6803H63.7714V54.4418L65.2788 53.8058V40.3123H61.3677L59.9853 42.6577H59.6642L60.3688 39.5791H71.9101L72.6102 42.6577H72.2892L70.9067 40.3123H66.9957V53.8058L68.503 54.4418V54.6803H68.4896Z" fill="#333333"/>
<path d="M76.9583 53.9077C75.888 53.2452 75.0362 52.3265 74.4119 51.156C73.7831 49.9811 73.4664 48.6693 73.4664 47.2117C73.4664 45.7542 73.8098 44.354 74.4921 43.1659C75.1744 41.9822 76.0753 41.0591 77.1991 40.4054C78.3229 39.7517 79.518 39.4204 80.7935 39.4204C82.0689 39.4204 83.2462 39.7473 84.3432 40.4054C85.4403 41.0635 86.3144 41.9645 86.961 43.1173C87.6076 44.2701 87.9332 45.5554 87.9332 46.9732C87.9332 48.391 87.5809 49.8044 86.8807 51.0191C86.1806 52.2337 85.2485 53.1833 84.0935 53.8724C82.934 54.5614 81.7166 54.9059 80.4322 54.9059C79.1479 54.9059 78.0285 54.5746 76.9583 53.9121V53.9077ZM83.4112 53.4881C84.1559 53.0376 84.758 52.3265 85.2262 51.3503C85.6945 50.3742 85.9308 49.1552 85.9308 47.6843C85.9308 46.081 85.6811 44.7074 85.1772 43.5678C84.6733 42.4283 84.0043 41.5758 83.1704 41.0061C82.332 40.4363 81.4089 40.1492 80.3921 40.1492C79.5894 40.1492 78.8045 40.3568 78.033 40.7676C77.2615 41.1783 76.6193 41.8585 76.1065 42.8126C75.5936 43.7666 75.335 44.9989 75.335 46.5095C75.335 48.0995 75.6159 49.4732 76.1778 50.6348C76.7397 51.7964 77.4577 52.671 78.3362 53.2673C79.2103 53.8635 80.1111 54.1639 81.0343 54.1639C81.8771 54.1639 82.6709 53.9386 83.4112 53.4881Z" fill="#333333"/>
<path d="M89.6234 54.6804V54.4418L91.1307 53.8058V40.4272L89.6234 39.8132V39.5747H95.8222C96.6784 39.5747 97.49 39.716 98.2526 39.9943C99.0152 40.2726 99.6351 40.701 100.108 41.2752C100.581 41.8494 100.821 42.5517 100.821 43.3732C100.821 44.1947 100.572 44.9368 100.077 45.5595C99.5816 46.1823 98.926 46.6593 98.1099 46.9906C97.2938 47.3219 96.4242 47.4853 95.5011 47.4853H92.8343V53.8058L94.3416 54.4418V54.6804H89.6234ZM95.3227 46.73C96.5 46.73 97.4232 46.4429 98.0921 45.8643C98.761 45.2901 99.0955 44.4642 99.0955 43.3909C99.0955 42.3176 98.7566 41.5402 98.0832 41.0544C97.4053 40.5729 96.4866 40.33 95.3227 40.33H92.8343V46.73H95.3227Z" fill="#333333"/>
<path d="M102.123 54.6804V54.4418L103.631 53.8853V40.4492L102.123 39.8132V39.5747H106.842V39.8132L105.334 40.4492V46.0145H108.403C109.259 46.0145 110.066 46.1691 110.829 46.4827C111.591 46.7963 112.211 47.2645 112.684 47.8916C113.156 48.5233 113.397 49.2918 113.397 50.2061C113.397 51.1204 113.147 51.9375 112.652 52.6088C112.157 53.2846 111.502 53.797 110.686 54.1503C109.87 54.4993 109 54.6759 108.077 54.6759H102.119L102.123 54.6804ZM105.334 46.6505V54.0443H107.903C109.067 54.0443 109.986 53.7086 110.663 53.0417C111.337 52.3748 111.676 51.434 111.676 50.2282C111.676 49.0224 111.332 48.1081 110.655 47.525C109.972 46.942 109.054 46.6505 107.903 46.6505H105.334ZM118.419 54.4418L116.911 53.8058V40.4272L118.419 39.8132V39.5747H113.7V39.8132L115.208 40.4272V53.8058L113.7 54.4418V54.6804H118.419V54.4418Z" fill="#333333"/>
<path d="M192.799 29.9371C192.71 29.4247 192.509 29.1288 192.344 28.8858C192.179 28.6385 192.059 28.4618 192.05 28.082C192.041 27.7242 192.144 27.5078 192.269 27.2339C192.367 27.0264 192.474 26.7923 192.545 26.4787C192.755 25.5511 192.487 24.4999 191.747 23.3559C191.421 22.8833 191.14 22.3798 190.908 21.8586C190.556 21.0636 190.315 20.22 190.199 19.3543L190.182 19.2218L188.625 17.9939C188.237 17.4727 187.925 16.9162 187.702 16.3287C187.292 15.2422 187.323 14.4427 187.35 13.736C187.377 13.0161 187.399 12.3933 186.899 11.8014C186.369 11.1787 185.669 11.0992 184.991 11.0197C184.331 10.9446 183.644 10.8695 182.997 10.2953C182.471 9.83153 182.11 9.17342 181.923 8.3298C181.909 7.81745 181.789 7.34042 181.561 6.90757C181.008 5.86519 180.018 5.44559 179.595 5.2645C178.961 4.99507 178.524 4.96857 178.101 4.94207C177.673 4.91557 177.267 4.88907 176.611 4.60639C176.402 4.51364 176.295 4.45622 176.152 4.3723C175.991 4.27954 175.791 4.16029 175.371 3.96153C174.752 3.67002 174.105 3.40942 173.458 3.193C173.03 2.5128 172.495 2.02695 171.862 1.74869C171.179 1.44392 170.64 1.49251 170.118 1.54109C169.632 1.58526 169.177 1.62501 168.562 1.3865C168.125 1.21866 167.888 1.01549 167.656 0.816728C167.353 0.556134 167.041 0.291123 166.399 0.202785C166.1 0.158617 165.743 0.158617 164.392 0.53405C163.554 0.768143 162.706 1.0464 161.877 1.36L161.756 1.40417L161.698 1.51901C161.591 1.72218 161.275 2.23012 160.633 2.47747C159.883 2.76898 159.215 2.50397 159.027 2.41563L158.902 2.35821L158.769 2.4068C158.028 2.67622 157.284 2.78223 156.561 2.72039C155.928 2.66739 155.495 2.49513 155.072 2.33171C154.657 2.16829 154.224 2.00045 153.653 1.96953C152.614 1.90769 151.526 2.32288 150.42 3.20183L150.358 3.25042L147.468 9.42076L147.499 9.54002C148.155 11.8721 148.066 13.7449 147.236 15.1097C147.018 15.4674 146.808 15.7015 146.581 15.9489C146.447 16.0946 146.309 16.2536 146.17 16.4303L146.652 16.819H146.71C146.835 16.6644 146.955 16.5275 147.08 16.3906C147.316 16.13 147.562 15.865 147.811 15.4542C148.726 13.9525 148.851 11.9472 148.182 9.4826L150.902 3.67443C151.852 2.9324 152.762 2.58347 153.613 2.63206C154.077 2.65856 154.425 2.79548 154.826 2.95007C155.272 3.12233 155.772 3.31667 156.499 3.38292C157.279 3.44917 158.077 3.34759 158.867 3.07374C159.219 3.21508 160.004 3.43151 160.869 3.09583C161.623 2.80431 162.037 2.25221 162.22 1.93861C162.996 1.6471 163.786 1.39092 164.566 1.17008C165.89 0.799061 166.136 0.834396 166.296 0.85648C166.738 0.918316 166.938 1.08616 167.21 1.32025C167.46 1.53226 167.768 1.79285 168.308 2.00486C169.07 2.30079 169.654 2.24779 170.167 2.1992C170.644 2.15504 171.055 2.1197 171.581 2.34938C172.116 2.58789 172.575 3.02074 172.941 3.63468L173.003 3.74069L173.124 3.78044C173.784 3.99686 174.444 4.26188 175.077 4.55781C175.47 4.74331 175.648 4.8449 175.804 4.93765C175.956 5.02599 176.085 5.1055 176.339 5.2115C177.102 5.53835 177.606 5.56927 178.047 5.60018C178.449 5.62668 178.796 5.64877 179.323 5.87403C179.679 6.0242 180.522 6.37755 180.959 7.21234C181.142 7.56127 181.24 7.94995 181.245 8.37397L181.254 8.44022C181.472 9.43843 181.905 10.229 182.542 10.7944C183.35 11.5055 184.175 11.5983 184.906 11.6778C185.53 11.7484 186.021 11.8014 186.382 12.2255C186.717 12.6186 186.703 13.0514 186.676 13.7095C186.65 14.4383 186.614 15.3482 187.073 16.5584C187.323 17.2165 187.671 17.8437 188.112 18.4223L189.553 19.5751C189.687 20.4585 189.936 21.3154 190.298 22.1236C190.547 22.6846 190.846 23.2234 191.189 23.7181C191.823 24.7031 192.059 25.582 191.89 26.3329C191.832 26.5802 191.747 26.7613 191.658 26.9557C191.511 27.2649 191.363 27.5873 191.377 28.0996C191.39 28.6694 191.6 28.9786 191.783 29.2524C191.93 29.4689 192.068 29.6765 192.135 30.0475C192.166 30.2197 192.206 30.4583 191.488 32.7373C191.31 33.3027 191.154 33.7709 191.038 34.111L188.804 37.3132L188.277 39.6409L186.618 42.132C186.114 42.4323 185.593 42.6532 185.058 42.7901C184.652 42.8917 184.34 42.927 184.01 42.958C183.622 42.9977 183.22 43.0375 182.685 43.1965C182.217 43.3378 181.766 43.5321 181.338 43.7795C179.746 43.3996 178.591 43.5366 177.904 44.1903C177.512 44.5613 177.436 44.9676 177.369 45.3254C177.307 45.6611 177.244 45.9747 176.95 46.3368C176.491 46.8978 175.933 47.101 175.394 47.2997C174.823 47.5073 174.23 47.7237 173.828 48.3509C173.374 49.062 173.382 50.0603 173.846 51.3146C173.432 51.9109 172.928 52.4365 172.348 52.8782C171.71 53.3596 171.001 53.7262 170.239 53.9692L170.131 54.0045L170.065 54.0928C169.699 54.5964 169.262 54.9718 168.767 55.2191C168.169 55.5107 167.67 55.5151 167.148 55.5239C166.742 55.5283 166.327 55.5327 165.877 55.6741C164.834 56.0009 163.977 56.955 163.331 58.5185C162.448 58.2049 160.535 57.5292 158.942 57.0168C158.764 56.9594 158.39 56.8401 157.899 56.849C157.15 56.8711 156.432 57.1935 155.758 57.8074L152.597 57.9178L152.516 57.9708C152.164 58.2049 151.883 58.4876 151.678 58.8189C151.424 59.2252 151.361 59.5697 151.308 59.8745C151.272 60.0689 151.245 60.2367 151.165 60.4001C150.964 60.8286 150.465 61.1598 149.68 61.3851L149.484 61.4425L149.444 61.6413C149.314 62.3082 149.118 62.9619 148.859 63.5847C148.677 64.0219 148.458 64.4504 148.208 64.8567L148.15 64.9495L148.431 67.6923C148.382 68.2577 148.311 68.8275 148.217 69.3796C148.11 70.02 147.972 70.6649 147.811 71.2965C147.437 71.4732 147.093 71.694 146.781 71.9546C146.478 72.2064 146.34 72.3919 146.237 72.5244C146.148 72.6436 146.121 72.679 146.023 72.7231C145.773 72.8424 145.546 72.7673 145.194 72.6348C144.819 72.4935 144.351 72.3168 143.816 72.5686C143.762 72.5951 143.66 72.6481 143.544 72.7099C143.339 72.8203 142.906 73.0456 142.781 73.0809C142.647 73.1162 142.514 73.1339 142.5 73.1339L142.424 73.1427C141.546 73.2046 140.618 73.0456 139.659 72.6746L139.606 72.6525L137.332 72.5774L135.097 71.9458L132.752 71.0757C132.337 70.7444 131.962 70.369 131.632 69.9626C131.405 69.6799 131.267 69.4635 131.097 69.1941C131.003 69.0439 130.896 68.8805 130.763 68.6817C130.12 67.7321 129.79 67.2639 129.411 66.9724C128.729 66.4512 128.033 66.3275 127.418 66.2215C126.95 66.1464 126.682 66.1509 126.174 66.173C125.879 66.1862 125.491 66.2039 124.912 66.2127C124.27 66.2215 123.922 66.2127 123.632 66.1994C123.288 66.1862 123.016 66.1774 122.455 66.2083C121.964 66.2348 121.219 66.2701 120.283 66.4424C119.632 66.5616 118.989 66.7251 118.361 66.9282L116.184 66.7869L113.081 67.2065L112.287 66.7118C112.113 66.0625 111.832 65.4574 111.448 64.9097C110.721 63.8674 109.825 63.3285 109.477 63.143C108.848 62.8161 108.171 62.613 107.453 62.5423C107.127 62.3568 106.824 62.1448 106.543 61.9107C105.317 60.886 104.723 59.5742 104.447 58.6466L104.211 57.326L103.551 57.4055L103.805 58.8189C104.237 60.2676 105.04 61.5088 106.115 62.4098C106.445 62.6836 106.806 62.9354 107.19 63.1474L107.252 63.1827H107.323C107.974 63.2446 108.594 63.4212 109.165 63.7216C109.473 63.885 110.258 64.3576 110.9 65.2807C111.261 65.7975 111.52 66.3761 111.671 66.9945L111.703 67.127L112.933 67.8867V67.8779L112.938 67.8867L116.176 67.4406L118.45 67.5908L118.512 67.5687C119.128 67.3655 119.761 67.2021 120.403 67.0828C121.295 66.9194 121.986 66.8841 122.49 66.862C123.025 66.8355 123.271 66.8443 123.614 66.8531C123.904 66.862 124.27 66.8752 124.925 66.8664C125.518 66.8576 125.915 66.8399 126.209 66.8266C126.713 66.8046 126.896 66.7957 127.307 66.8664C127.873 66.968 128.457 67.0696 129.01 67.4892C129.309 67.7144 129.63 68.1782 130.214 69.0439C130.343 69.2338 130.442 69.3928 130.535 69.5386C130.709 69.8169 130.861 70.0554 131.115 70.369C131.485 70.8283 131.909 71.2479 132.381 71.6189L134.892 72.5686L137.229 73.2311L139.468 73.3062C140.498 73.6993 141.506 73.8671 142.469 73.8009C142.514 73.8009 142.549 73.7964 142.576 73.792C142.576 73.792 142.763 73.7699 142.946 73.7214C143.133 73.6728 143.45 73.5093 143.851 73.2973C143.958 73.2399 144.048 73.1913 144.097 73.1693C144.36 73.0456 144.592 73.1207 144.948 73.2576C145.319 73.3945 145.782 73.5712 146.3 73.3238C146.545 73.209 146.652 73.0677 146.763 72.9219C146.853 72.8071 146.96 72.6613 147.205 72.4581C147.508 72.2064 147.847 71.9944 148.217 71.8354L148.364 71.7735L148.405 71.6189C148.592 70.9211 148.748 70.2011 148.864 69.4856C148.962 68.9026 149.038 68.3063 149.087 67.7144L148.824 65.0952C149.065 64.6889 149.279 64.2649 149.462 63.832C149.716 63.2313 149.912 62.5997 150.046 61.9549C150.911 61.6722 151.486 61.2437 151.754 60.674C151.87 60.4266 151.91 60.2014 151.945 59.9805C151.99 59.7111 152.035 59.4593 152.222 59.1634C152.365 58.9381 152.556 58.7394 152.793 58.5671L156.013 58.4523L156.106 58.3639C156.681 57.8074 157.284 57.5203 157.894 57.5027C158.269 57.4938 158.559 57.5866 158.715 57.6352C160.57 58.2359 162.934 59.0795 163.389 59.2429L163.701 59.3533L163.817 59.0486C164.401 57.5071 165.155 56.5795 166.06 56.2969C166.417 56.1864 166.769 56.182 167.139 56.1776C167.688 56.1688 168.312 56.1643 169.048 55.8066C169.614 55.5283 170.114 55.1131 170.528 54.5654C171.327 54.3004 172.071 53.9118 172.74 53.4038C173.427 52.8826 174.016 52.2554 174.488 51.5355L174.582 51.3941L174.52 51.2351C174.074 50.1088 174.029 49.2608 174.381 48.7043C174.658 48.2714 175.077 48.1168 175.612 47.9225C176.205 47.7061 176.879 47.4587 177.454 46.7564C177.855 46.2662 177.945 45.8112 178.011 45.4491C178.074 45.1266 178.119 44.8925 178.355 44.6673C178.881 44.1637 179.871 44.0931 181.298 44.4508L181.436 44.4862L181.557 44.4111C181.972 44.1593 182.413 43.965 182.868 43.8281C183.341 43.6867 183.693 43.6514 184.068 43.6116C184.406 43.5763 184.759 43.541 185.214 43.4261C185.834 43.2671 186.44 43.0065 187.02 42.6532L187.082 42.6134L188.857 39.9501L189.419 37.5782L191.609 34.4423L191.649 34.3583C191.765 34.0094 191.93 33.5191 192.117 32.9273C192.835 30.6614 192.848 30.2816 192.786 29.9282L192.799 29.9371Z" fill="#333333"/>
<path d="M142.072 73.9998C141.22 73.9998 140.342 73.8275 139.445 73.4918L137.238 73.4212L134.857 72.7542L132.283 71.7737C131.806 71.3983 131.369 70.9654 130.99 70.4972C130.732 70.1748 130.575 69.9319 130.397 69.6536C130.299 69.499 130.201 69.3488 130.076 69.1633C129.501 68.3153 129.184 67.8604 128.912 67.6483C128.395 67.2508 127.833 67.1537 127.289 67.0565C126.901 66.9902 126.731 66.9947 126.236 67.0211C125.929 67.0344 125.532 67.0521 124.934 67.0609C124.274 67.0697 123.908 67.0609 123.619 67.0477C123.271 67.0344 123.03 67.03 122.508 67.0565C122.013 67.083 121.331 67.1139 120.448 67.2773C119.819 67.3922 119.19 67.5512 118.584 67.7543L118.49 67.7853L116.18 67.6351L113.058 68.0679L113.014 68.1386L112.916 68.0856L112.8 68.1033L112.786 68.0149L111.56 67.2552L111.511 67.0521C111.364 66.4558 111.114 65.8948 110.766 65.3957C110.146 64.508 109.388 64.0486 109.094 63.894C108.545 63.6069 107.952 63.4347 107.323 63.3817L107.176 63.3552L107.114 63.3198C106.721 63.1034 106.351 62.8472 106.012 62.5645C104.942 61.6723 104.144 60.4533 103.689 59.0266H103.68L103.649 58.8941L103.595 58.7219H103.613L103.354 57.2731L104.371 57.1495L104.639 58.638C104.906 59.5169 105.477 60.7978 106.672 61.796C106.935 62.0168 107.221 62.2156 107.524 62.3923C108.251 62.4674 108.938 62.675 109.575 63.0062C109.937 63.1961 110.864 63.7571 111.613 64.8304C111.993 65.3737 112.278 65.9743 112.461 66.6192L113.143 67.0432L116.18 66.6281L118.356 66.765C118.981 66.5618 119.623 66.3984 120.269 66.2835C121.228 66.1113 121.973 66.0715 122.463 66.0494C123.034 66.0229 123.306 66.0274 123.654 66.0406C123.944 66.0494 124.287 66.0583 124.925 66.0539C125.487 66.045 125.866 66.0274 126.152 66.0141C126.696 65.9876 126.972 65.9876 127.463 66.0627C128.1 66.1731 128.818 66.3012 129.536 66.8489C129.938 67.1581 130.272 67.6351 130.928 68.6024C131.062 68.8011 131.169 68.9646 131.262 69.1192C131.432 69.3886 131.565 69.5962 131.788 69.87C132.101 70.2587 132.462 70.6165 132.859 70.9345L135.178 71.7958L137.399 72.423L139.74 72.5246C140.667 72.8867 141.573 73.0369 142.424 72.9839L142.496 72.9751C142.496 72.9751 142.63 72.9574 142.745 72.9265C142.817 72.9088 143.058 72.7896 143.468 72.5731C143.588 72.5069 143.691 72.4539 143.749 72.4274C144.355 72.1403 144.882 72.3435 145.27 72.4848C145.622 72.6173 145.782 72.6615 145.956 72.5776C146.014 72.5511 146.019 72.5466 146.104 72.4318C146.211 72.2905 146.358 72.0961 146.674 71.8311C146.973 71.5793 147.308 71.3629 147.669 71.1862C147.82 70.5855 147.95 69.976 148.052 69.3621C148.146 68.81 148.217 68.249 148.266 67.6881L147.981 64.9187L148.07 64.773C148.311 64.3755 148.525 63.9514 148.708 63.523C148.967 62.9135 149.158 62.2686 149.283 61.6149L149.341 61.3057L149.644 61.2174C150.376 61.0098 150.835 60.7095 151.013 60.3296C151.08 60.1839 151.107 60.0381 151.138 59.8526C151.192 59.5478 151.259 59.168 151.531 58.7307C151.754 58.3774 152.053 58.077 152.423 57.8297L152.543 57.7502L155.687 57.6397C156.378 57.0214 157.123 56.699 157.895 56.6769C158.416 56.6725 158.809 56.7917 159.001 56.8491C160.387 57.2996 162.037 57.8738 163.237 58.2979C163.897 56.7785 164.771 55.8377 165.833 55.5064C166.31 55.3562 166.738 55.3518 167.153 55.3474C167.661 55.343 168.134 55.3341 168.7 55.0603C169.173 54.8306 169.587 54.4684 169.931 53.9914L170.029 53.8545L170.19 53.8015C170.934 53.5674 171.63 53.2096 172.245 52.7414C172.789 52.3307 173.262 51.8448 173.655 51.2927C173.2 50.0251 173.209 49.0048 173.681 48.2628C174.109 47.587 174.761 47.3485 175.336 47.1409C175.849 46.951 176.384 46.761 176.812 46.2354C177.08 45.9086 177.133 45.6303 177.195 45.3035C177.267 44.9369 177.352 44.4819 177.784 44.0712C178.507 43.3865 179.693 43.2275 181.316 43.5986C181.735 43.36 182.181 43.1745 182.636 43.0376C183.189 42.8742 183.599 42.83 183.992 42.7903C184.313 42.7593 184.621 42.724 185.013 42.6268C185.517 42.4988 186.012 42.2912 186.489 42.0085L188.108 39.5792L188.656 37.2206L190.877 34.0405C190.989 33.7004 191.145 33.241 191.319 32.6933C192.028 30.4584 191.988 30.2243 191.961 30.0874C191.903 29.7517 191.778 29.5706 191.635 29.3586C191.448 29.0803 191.212 28.7314 191.198 28.1086C191.185 27.5565 191.35 27.1988 191.497 26.8852C191.582 26.6997 191.667 26.5274 191.716 26.2977C191.876 25.5954 191.644 24.7607 191.038 23.8155C190.69 23.3119 190.382 22.7642 190.133 22.1945C189.776 21.3906 189.526 20.5426 189.388 19.668L188.001 18.5594C187.519 17.9366 187.163 17.2918 186.908 16.616C186.44 15.3704 186.471 14.4429 186.503 13.7009C186.525 13.0648 186.538 12.6806 186.248 12.336C185.936 11.965 185.495 11.9164 184.893 11.8502C184.135 11.7663 183.278 11.6691 182.431 10.9227C181.762 10.3352 181.312 9.50926 181.084 8.47572L181.075 8.3918C181.066 7.98103 180.977 7.61884 180.808 7.292C180.397 6.51463 179.599 6.17895 179.26 6.03319C178.756 5.82118 178.444 5.7991 178.043 5.7726C177.583 5.74168 177.066 5.71076 176.272 5.37067C176.009 5.25583 175.867 5.17632 175.719 5.08799C175.563 4.99523 175.389 4.89364 175.006 4.71255C174.377 4.41662 173.726 4.15603 173.07 3.94402L172.888 3.88218L172.789 3.71876C172.442 3.13574 172.013 2.72939 171.51 2.50413C171.028 2.29212 170.658 2.32303 170.185 2.3672C169.65 2.41579 169.043 2.46879 168.245 2.15961C167.679 1.93877 167.358 1.66492 167.099 1.4485C166.84 1.22765 166.671 1.0819 166.274 1.02448C166.136 1.00239 165.904 0.971477 164.62 1.33366C163.861 1.54567 163.099 1.79743 162.35 2.07569C162.14 2.41137 161.703 2.95906 160.94 3.25499C160.071 3.59067 159.29 3.40958 158.867 3.25499C158.073 3.52 157.27 3.61717 156.485 3.55092C155.732 3.48467 155.219 3.28591 154.764 3.10924C154.376 2.95906 154.046 2.83097 153.604 2.80447C152.806 2.7603 151.946 3.08715 151.049 3.7806L148.373 9.49159C149.038 11.9739 148.904 14.0056 147.968 15.5383C147.705 15.9667 147.446 16.2494 147.218 16.5011C147.098 16.6381 146.978 16.7706 146.857 16.9207L146.804 16.987H146.594L145.925 16.4481L146.032 16.3112C146.175 16.1257 146.318 15.9711 146.451 15.8209C146.67 15.578 146.879 15.3528 147.085 15.0127C147.887 13.692 147.972 11.8679 147.33 9.58435L147.281 9.40326L150.246 3.10924L150.309 3.06065C151.446 2.15078 152.574 1.72234 153.662 1.7886C154.26 1.82393 154.706 1.99619 155.134 2.16403C155.544 2.32303 155.968 2.48646 156.575 2.53946C157.275 2.6013 157.988 2.49971 158.706 2.2347L158.907 2.15961L159.103 2.25236C159.273 2.33187 159.884 2.5748 160.57 2.30978C161.154 2.08452 161.444 1.62517 161.542 1.43525L161.632 1.26299L161.814 1.19232C162.653 0.874306 163.505 0.596044 164.343 0.357534C165.726 -0.0311496 166.105 -0.0267328 166.426 0.0218526C167.112 0.119023 167.46 0.410536 167.768 0.67113C168.004 0.869889 168.223 1.0554 168.629 1.2144C169.204 1.43966 169.619 1.39991 170.105 1.35574C170.622 1.30716 171.211 1.25416 171.942 1.57659C172.589 1.86368 173.142 2.35395 173.583 3.03857C174.216 3.25499 174.845 3.51117 175.456 3.79385C175.88 3.99261 176.085 4.11186 176.246 4.20903C176.393 4.29737 176.486 4.35037 176.687 4.43871C177.316 4.70814 177.704 4.73464 178.119 4.76114C178.533 4.78764 179.006 4.81856 179.671 5.09682C180.112 5.28233 181.147 5.7196 181.726 6.81939C181.967 7.27433 182.096 7.78227 182.11 8.32113C182.284 9.09408 182.627 9.72127 183.127 10.1585C183.729 10.6886 184.353 10.7592 185.013 10.8343C185.704 10.9138 186.471 10.9977 187.047 11.6779C187.591 12.3184 187.568 13.0074 187.542 13.7318C187.515 14.4208 187.488 15.2026 187.885 16.2582C188.099 16.8236 188.393 17.3624 188.768 17.8615L190.36 19.1203L190.387 19.3235C190.503 20.176 190.739 21.0019 191.082 21.7793C191.31 22.2916 191.586 22.7863 191.907 23.2501C192.675 24.4382 192.951 25.538 192.732 26.5142C192.657 26.8498 192.536 27.106 192.443 27.3092C192.318 27.5742 192.229 27.7641 192.237 28.0777C192.246 28.4046 192.345 28.5503 192.501 28.7888C192.666 29.0318 192.889 29.363 192.982 29.9107C193.054 30.3259 193.013 30.7676 192.309 32.9937C192.122 33.59 191.957 34.0802 191.841 34.4292L191.787 34.5352L189.606 37.6667L189.031 40.0651L187.203 42.7814L187.14 42.8212C186.543 43.1878 185.918 43.4528 185.285 43.6162C184.817 43.7355 184.46 43.7708 184.112 43.8061C183.747 43.8415 183.403 43.8768 182.948 44.0137C182.507 44.1462 182.079 44.3362 181.677 44.5791L181.494 44.6895L181.285 44.6365C179.925 44.292 178.993 44.3494 178.511 44.8088C178.315 44.9943 178.279 45.1842 178.221 45.4934C178.154 45.8556 178.061 46.3503 177.628 46.8803C177.022 47.6179 176.326 47.8741 175.71 48.0993C175.189 48.2893 174.814 48.4262 174.569 48.8104C174.248 49.314 174.301 50.1134 174.725 51.1823L174.823 51.4252L174.68 51.6461C174.199 52.3793 173.597 53.0241 172.892 53.5586C172.223 54.0665 171.478 54.4596 170.685 54.729C170.261 55.2767 169.752 55.7007 169.173 55.979C168.406 56.3544 167.759 56.3633 167.188 56.3677C166.827 56.3677 166.493 56.3765 166.158 56.4781C165.306 56.7431 164.593 57.6309 164.031 59.1194L163.853 59.5876L163.375 59.4153C162.916 59.2519 160.539 58.4083 158.706 57.812C158.563 57.7634 158.296 57.6795 157.948 57.6883C157.386 57.7016 156.824 57.9754 156.28 58.501L156.138 58.638L152.904 58.7528C152.708 58.903 152.543 59.0752 152.423 59.2651C152.253 59.5346 152.213 59.7598 152.169 60.0204C152.128 60.2457 152.088 60.493 151.963 60.758C151.687 61.3499 151.107 61.8004 150.246 62.1008C150.108 62.7191 149.916 63.3287 149.671 63.9117C149.493 64.3357 149.283 64.7509 149.056 65.1484L149.31 67.7102C149.261 68.3418 149.185 68.9425 149.087 69.5255C148.967 70.2455 148.81 70.9654 148.623 71.6721L148.561 71.9106L148.333 72.0078C147.981 72.158 147.651 72.3611 147.366 72.5996C147.138 72.794 147.04 72.9221 146.951 73.0325C146.835 73.1827 146.706 73.3549 146.42 73.4874C145.831 73.7657 145.314 73.5669 144.931 73.4256C144.569 73.2887 144.404 73.2445 144.217 73.3328C144.177 73.3505 144.11 73.3858 144.025 73.43L143.976 73.4565C143.553 73.6818 143.236 73.8452 143.031 73.8982C142.835 73.9512 142.634 73.9733 142.634 73.9733C142.607 73.9733 142.572 73.9777 142.523 73.9821C142.38 73.9909 142.237 73.9954 142.094 73.9954L142.072 73.9998ZM132.484 71.4778L134.973 72.4141L137.296 73.0722L139.552 73.1517C140.56 73.536 141.546 73.6994 142.478 73.6332C142.518 73.6332 142.549 73.6288 142.576 73.6244C142.58 73.6244 142.754 73.6023 142.924 73.5581C143.089 73.5139 143.414 73.3461 143.793 73.1473L143.843 73.1208C143.932 73.0767 144.003 73.0369 144.048 73.0148C144.396 72.8514 144.708 72.9707 145.042 73.0943C145.399 73.2268 145.805 73.3814 146.251 73.1694C146.456 73.0722 146.541 72.9618 146.648 72.8249C146.737 72.7101 146.857 72.551 147.116 72.3302C147.432 72.0652 147.785 71.8488 148.173 71.6809L148.24 71.65L148.257 71.5793C148.445 70.8859 148.596 70.1748 148.717 69.4637C148.815 68.8851 148.886 68.2932 148.94 67.7058L148.672 65.0601L148.703 65.0115C148.94 64.614 149.149 64.1988 149.328 63.7703C149.578 63.1785 149.769 62.5557 149.903 61.9241L149.925 61.8225L150.023 61.7916C150.84 61.5266 151.379 61.1291 151.624 60.6035C151.727 60.3826 151.763 60.175 151.803 59.9586C151.852 59.6847 151.901 59.4021 152.106 59.0752C152.262 58.8323 152.467 58.6115 152.721 58.4304L152.766 58.3994L155.972 58.2846L156.017 58.2449C156.628 57.6574 157.27 57.3526 157.926 57.335C158.336 57.3261 158.653 57.4277 158.804 57.4763C160.646 58.0726 163.027 58.9206 163.487 59.0841L163.63 59.1371L163.683 58.9957C164.285 57.3968 165.079 56.4384 166.042 56.138C166.426 56.0188 166.787 56.0143 167.175 56.0099C167.706 56.0055 168.308 55.9967 169.003 55.6566C169.547 55.3916 170.02 54.9896 170.421 54.464L170.457 54.4199L170.511 54.4022C171.291 54.146 172.018 53.7617 172.669 53.2671C173.338 52.7591 173.913 52.1452 174.373 51.4429L174.417 51.3766L174.386 51.3016C173.918 50.1223 173.878 49.2168 174.261 48.6117C174.569 48.1258 175.037 47.9536 175.581 47.7592C176.152 47.5516 176.803 47.3131 177.347 46.6506C177.722 46.1957 177.797 45.7849 177.869 45.4271C177.931 45.0959 177.985 44.8132 178.261 44.5482C178.837 44.0005 179.885 43.9122 181.374 44.292L181.436 44.3097L181.49 44.2743C181.918 44.0137 182.373 43.8106 182.841 43.6692C183.332 43.5235 183.693 43.4881 184.072 43.4484C184.407 43.413 184.75 43.3777 185.191 43.2673C185.793 43.1127 186.382 42.8609 186.948 42.5164L186.975 42.4988L188.71 39.8928L189.29 37.49L191.506 34.2922C191.613 33.9698 191.778 33.4795 191.965 32.8877C192.67 30.666 192.683 30.2906 192.63 29.9726C192.545 29.5 192.367 29.2305 192.206 28.992C192.037 28.7403 191.89 28.5238 191.881 28.091C191.872 27.6935 191.983 27.4461 192.117 27.1634C192.211 26.9647 192.318 26.7394 192.385 26.4391C192.585 25.5557 192.322 24.5531 191.613 23.4489C191.283 22.9718 190.998 22.4595 190.761 21.9295C190.4 21.1212 190.159 20.2599 190.034 19.3765L190.026 19.3147L188.496 18.0956C188.095 17.5612 187.778 16.987 187.551 16.3863C187.127 15.2644 187.158 14.4473 187.185 13.7274C187.212 13.0118 187.234 12.4509 186.775 11.912C186.288 11.3423 185.655 11.2716 184.982 11.1965C184.317 11.1214 183.577 11.0375 182.886 10.428C182.333 9.94211 181.954 9.24866 181.753 8.36529C181.735 7.8441 181.624 7.39359 181.41 6.98723C180.888 5.99786 179.938 5.59592 179.528 5.42808C178.921 5.17191 178.498 5.14541 178.092 5.1189C177.646 5.08799 177.231 5.06149 176.544 4.76997C176.321 4.6728 176.21 4.60655 176.067 4.52705C175.902 4.42987 175.706 4.31504 175.3 4.12511C174.685 3.83802 174.051 3.58184 173.405 3.361L173.342 3.33891L173.307 3.28591C172.901 2.63663 172.388 2.17286 171.79 1.90785C171.148 1.62075 170.658 1.66934 170.136 1.71351C169.654 1.75768 169.15 1.80185 168.499 1.55008C168.036 1.36899 167.772 1.14815 167.541 0.949392C167.242 0.693215 166.961 0.454705 166.377 0.375201C166.096 0.335449 165.761 0.331033 164.446 0.702048C163.616 0.936142 162.773 1.2144 161.944 1.52358L161.89 1.54567L161.864 1.59867C161.748 1.82393 161.404 2.37162 160.704 2.64105C159.884 2.95465 159.157 2.66755 158.956 2.5748L158.898 2.54829L158.836 2.57038C158.068 2.85306 157.301 2.95906 156.548 2.89723C155.892 2.83981 155.442 2.66755 155.009 2.49971C154.608 2.3407 154.189 2.1817 153.649 2.15078C152.655 2.09336 151.607 2.49529 150.541 3.34775L150.514 3.36983L147.669 9.44301L147.682 9.49601C148.351 11.8767 148.257 13.798 147.397 15.2026C147.169 15.5736 146.955 15.8121 146.723 16.0639C146.625 16.1699 146.527 16.2803 146.429 16.404L146.665 16.5939C146.759 16.4791 146.853 16.3775 146.951 16.2715C147.178 16.0197 147.419 15.7591 147.66 15.3616C148.547 13.904 148.668 11.9429 148.008 9.53134L147.99 9.46951L150.791 3.53767C151.772 2.76914 152.726 2.40254 153.627 2.45996C154.122 2.49088 154.496 2.63663 154.893 2.79122C155.326 2.95906 155.816 3.14899 156.517 3.21082C157.27 3.27708 158.046 3.17549 158.813 2.91048L158.876 2.88839L158.938 2.91489C159.295 3.05623 160.013 3.24616 160.811 2.93698C161.516 2.66313 161.904 2.14194 162.073 1.85485L162.104 1.80185L162.162 1.77976C162.938 1.48825 163.732 1.22765 164.521 1.00681C165.882 0.626962 166.14 0.662297 166.328 0.688798C166.827 0.759468 167.063 0.962643 167.335 1.19232C167.572 1.39549 167.871 1.64726 168.379 1.84601C169.101 2.12428 169.663 2.07569 170.158 2.03152C170.64 1.98735 171.09 1.9476 171.661 2.19936C172.232 2.45112 172.718 2.91048 173.102 3.55534L173.133 3.60392L173.186 3.62159C173.851 3.84243 174.515 4.10744 175.162 4.40779C175.559 4.5933 175.742 4.6993 175.902 4.79647C176.049 4.88481 176.174 4.9599 176.419 5.06149C177.155 5.37508 177.641 5.406 178.07 5.43692C178.471 5.46342 178.845 5.4855 179.407 5.72401C179.782 5.88302 180.665 6.25404 181.133 7.14624C181.329 7.52167 181.432 7.93686 181.441 8.38738V8.43596C181.655 9.38117 182.07 10.1365 182.681 10.6753C183.443 11.3467 184.237 11.435 184.942 11.5145C185.579 11.5852 186.128 11.647 186.534 12.124C186.913 12.5701 186.895 13.056 186.873 13.7274C186.846 14.4429 186.815 15.3307 187.256 16.51C187.497 17.1548 187.84 17.7644 188.269 18.3297L189.731 19.4914L189.74 19.5576C189.869 20.4233 190.115 21.2669 190.472 22.062C190.717 22.6141 191.011 23.1397 191.35 23.6299C192.015 24.6591 192.26 25.5866 192.077 26.3861C192.015 26.6511 191.921 26.8543 191.832 27.0442C191.689 27.3489 191.555 27.636 191.564 28.1086C191.577 28.6298 191.765 28.9037 191.943 29.1687C192.095 29.3939 192.251 29.6236 192.322 30.0344C192.358 30.2464 192.402 30.4893 191.667 32.8082C191.488 33.3735 191.332 33.8461 191.216 34.1862L191.194 34.2304L188.978 37.4061L188.434 39.7603L186.717 42.3044C186.199 42.6136 185.66 42.8433 185.111 42.9802C184.692 43.0862 184.375 43.1215 184.036 43.1525C183.657 43.1922 183.265 43.232 182.748 43.3865C182.293 43.5235 181.856 43.7134 181.441 43.9519L181.379 43.9872L181.307 43.9696C179.778 43.6074 178.676 43.7311 178.038 44.3362C177.69 44.6674 177.619 45.0296 177.557 45.3741C177.494 45.7142 177.427 46.0676 177.102 46.4651C176.611 47.0658 176.005 47.2866 175.47 47.481C174.899 47.6886 174.364 47.8873 173.998 48.4571C173.574 49.1196 173.588 50.0648 174.034 51.2618L174.065 51.3501L174.011 51.4252C173.588 52.0392 173.07 52.578 172.473 53.0285C171.822 53.5232 171.09 53.8987 170.305 54.146L170.256 54.1637L170.225 54.2034C169.846 54.729 169.387 55.1265 168.861 55.3827C168.223 55.6919 167.683 55.7007 167.161 55.7052C166.769 55.7096 166.368 55.714 165.94 55.8465C164.95 56.1557 164.129 57.0788 163.505 58.5894L163.438 58.744L163.277 58.6865C162.073 58.2581 160.334 57.653 158.893 57.1848C158.724 57.1318 158.372 57.0126 157.908 57.0258C157.208 57.0435 156.525 57.3526 155.883 57.9357L155.834 57.9798L152.659 58.0947L152.623 58.1168C152.293 58.3332 152.03 58.6026 151.834 58.9118C151.598 59.2917 151.544 59.6008 151.491 59.9012C151.455 60.0999 151.424 60.2854 151.335 60.471C151.112 60.948 150.572 61.3146 149.738 61.5487L149.644 61.5752L149.627 61.6679C149.497 62.3481 149.297 63.0106 149.029 63.6467C148.842 64.0928 148.619 64.53 148.369 64.9452L148.342 64.9894L148.619 67.6748C148.57 68.28 148.498 68.8497 148.405 69.4107C148.298 70.0599 148.159 70.7092 147.994 71.3452L147.972 71.4248L147.896 71.4601C147.535 71.6279 147.201 71.8444 146.906 72.0917C146.621 72.3302 146.487 72.5069 146.393 72.635C146.295 72.7631 146.251 72.8249 146.112 72.8912C145.782 73.0457 145.488 72.9353 145.145 72.8072C144.784 72.6703 144.373 72.5157 143.909 72.7366C143.856 72.7631 143.758 72.8116 143.642 72.8735C143.249 73.0811 142.96 73.2268 142.839 73.2578C142.692 73.2975 142.54 73.3152 142.531 73.3152L142.456 73.324C141.546 73.3858 140.592 73.2224 139.61 72.8426L139.584 72.8337L137.345 72.7586L135.071 72.1226L132.662 71.2216C132.239 70.8815 131.851 70.4972 131.516 70.082C131.284 69.7905 131.146 69.5785 130.972 69.3047C130.874 69.1501 130.772 68.9866 130.638 68.7923C130.005 67.8604 129.684 67.3966 129.327 67.1227C128.676 66.628 128.002 66.5088 127.409 66.4028C126.954 66.3321 126.691 66.3321 126.205 66.3586C125.884 66.3719 125.5 66.3895 124.934 66.3984C124.287 66.4072 123.94 66.3984 123.645 66.3851C123.306 66.3719 123.039 66.3675 122.481 66.394C121.995 66.416 121.264 66.4558 120.332 66.6236C119.694 66.7385 119.052 66.9019 118.437 67.1051L118.405 67.1183L116.193 66.9726L113.063 67.401L113.107 67.7013L116.167 67.2773L118.441 67.4231L118.468 67.4142C119.092 67.2067 119.739 67.0388 120.385 66.924C121.295 66.7606 121.986 66.7252 122.495 66.6987C123.03 66.6722 123.275 66.6811 123.619 66.6899C123.926 66.6987 124.283 66.712 124.934 66.7031C125.523 66.6943 125.915 66.6766 126.214 66.6634C126.718 66.6413 126.923 66.6325 127.351 66.7076C127.94 66.8136 128.546 66.9196 129.135 67.3657C129.456 67.6086 129.782 68.0812 130.379 68.9602C130.504 69.1457 130.607 69.3002 130.696 69.446C130.879 69.7331 131.026 69.9672 131.271 70.272C131.628 70.7136 132.038 71.12 132.489 71.4778H132.484ZM111.872 67.03L112.884 67.6572L113.045 67.3966L112.14 66.8356L112.122 66.7694C111.952 66.1378 111.68 65.5503 111.31 65.0247C110.61 64.0177 109.74 63.4921 109.402 63.3154C108.795 62.9974 108.139 62.803 107.444 62.7368L107.372 62.7147C107.038 62.5248 106.726 62.3039 106.436 62.0654C105.174 61.0098 104.567 59.6627 104.282 58.7175L104.072 57.5426L103.769 57.5779L103.988 58.8014C104.411 60.2148 105.192 61.4206 106.24 62.2951C106.561 62.5645 106.913 62.8075 107.288 63.0151L107.35 63.0327C108.028 63.0901 108.67 63.2757 109.259 63.5848C109.58 63.7527 110.392 64.2429 111.056 65.197C111.431 65.7314 111.698 66.3277 111.854 66.9681L111.868 67.03H111.872Z" fill="#333333"/>
</g>
<defs>
<clipPath id="clip0_692_1407">
<rect width="193" height="74" fill="white"/>
</clipPath>
</defs>
</svg>
